<svg width="25" height="25" viewBox="0 0 25 25" fill="none" xmlns="http://www.w3.org/2000/svg">
<g clip-path="url(#clip0_26_818)">
<path d="M21.9557 7.96674C22.2106 7.96702 22.4557 8.06461 22.641 8.23958C22.8264 8.41455 22.9379 8.65369 22.9529 8.90813C22.9678 9.16257 22.885 9.41312 22.7214 9.60857C22.5578 9.80402 22.3258 9.92963 22.0727 9.95974L21.9557 9.96674V19.9667C22.2106 19.967 22.4557 20.0646 22.641 20.2396C22.8264 20.4146 22.9379 20.6537 22.9529 20.9081C22.9678 21.1626 22.885 21.4131 22.7214 21.6086C22.5578 21.804 22.3258 21.9296 22.0727 21.9597L21.9557 21.9667H3.95568C3.7008 21.9665 3.45565 21.8689 3.27031 21.6939C3.08497 21.5189 2.97344 21.2798 2.95851 21.0253C2.94357 20.7709 3.02635 20.5204 3.18994 20.3249C3.35353 20.1295 3.58558 20.0038 3.83868 19.9737L3.95568 19.9667V9.96674C3.7008 9.96645 3.45565 9.86886 3.27031 9.69389C3.08497 9.51892 2.97344 9.27978 2.95851 9.02534C2.94357 8.7709 3.02635 8.52036 3.18994 8.3249C3.35353 8.12945 3.58558 8.00384 3.83868 7.97374L3.95568 7.96674H21.9557ZM19.9557 9.96674H5.95568V19.9667H7.95568V12.9667C7.95568 12.7015 8.06104 12.4472 8.24857 12.2596C8.43611 12.0721 8.69046 11.9667 8.95568 11.9667C9.2209 11.9667 9.47525 12.0721 9.66279 12.2596C9.85032 12.4472 9.95568 12.7015 9.95568 12.9667V19.9667H11.9557V12.9667C11.9557 12.7015 12.061 12.4472 12.2486 12.2596C12.4361 12.0721 12.6905 11.9667 12.9557 11.9667C13.2209 11.9667 13.4752 12.0721 13.6628 12.2596C13.8503 12.4472 13.9557 12.7015 13.9557 12.9667V19.9667H15.9557V12.9667C15.9557 12.7015 16.061 12.4472 16.2486 12.2596C16.4361 12.0721 16.6905 11.9667 16.9557 11.9667C17.2209 11.9667 17.4753 12.0721 17.6628 12.2596C17.8503 12.4472 17.9557 12.7015 17.9557 12.9667V19.9667H19.9557V9.96674ZM18.9557 4.96674C19.2209 4.96674 19.4753 5.07209 19.6628 5.25963C19.8503 5.44717 19.9557 5.70152 19.9557 5.96674C19.9557 6.23195 19.8503 6.48631 19.6628 6.67384C19.4753 6.86138 19.2209 6.96674 18.9557 6.96674H6.95568C6.69046 6.96674 6.43611 6.86138 6.24857 6.67384C6.06104 6.48631 5.95568 6.23195 5.95568 5.96674C5.95568 5.70152 6.06104 5.44717 6.24857 5.25963C6.43611 5.07209 6.69046 4.96674 6.95568 4.96674H18.9557Z" fill="currentColor"/>
</g>
<defs>
<clipPath id="clip0_26_818">
<rect width="24" height="24" fill="white" transform="translate(0.955566 0.966736)"/>
</clipPath>
</defs>
</svg>
