<svg width="24" height="24" viewBox="0 0 22 22" fill="none" xmlns="http://www.w3.org/2000/svg">
<g id="flat-color-icons:cancel">
<path id="Vector" d="M11 2.75C6.4625 2.75 2.75 6.4625 2.75 11C2.75 15.5375 6.4625 19.25 11 19.25C15.5375 19.25 19.25 15.5375 19.25 11C19.25 6.4625 15.5375 2.75 11 2.75ZM11 4.58333C12.4208 4.58333 13.75 5.0875 14.85 5.86667L5.86667 14.85C5.0875 13.75 4.58333 12.4208 4.58333 11C4.58333 7.47083 7.47083 4.58333 11 4.58333ZM11 17.4167C9.57917 17.4167 8.25 16.9125 7.15 16.1333L16.1333 7.15C16.9125 8.25 17.4167 9.57917 17.4167 11C17.4167 14.5292 14.5292 17.4167 11 17.4167Z" fill="currentColor"/>
</g>
</svg>
