<svg width="19" height="19" viewBox="0 0 19 19" fill="none" xmlns="http://www.w3.org/2000/svg">
<path d="M9.88578 18.8786C10.7075 18.8786 11.4992 18.7717 12.2609 18.5579C13.0225 18.3441 13.7374 18.0435 14.4055 17.656C15.0736 17.2685 15.6815 16.7975 16.2294 16.243C16.7772 15.6884 17.2449 15.0838 17.6324 14.4291C18.0199 13.7743 18.3239 13.0595 18.5443 12.2845C18.7648 11.5095 18.8717 10.7145 18.865 9.89937C18.865 9.07761 18.7581 8.28592 18.5443 7.52429C18.3305 6.76265 18.0299 6.04779 17.6424 5.37969C17.2549 4.71159 16.7839 4.10363 16.2294 3.55578C15.6749 3.00794 15.0702 2.54028 14.4155 2.15278C13.7607 1.76528 13.0459 1.4613 12.2709 1.24083C11.4959 1.02035 10.7009 0.913458 9.88578 0.920137C9.06402 0.920137 8.27233 1.02703 7.51069 1.24083C6.74906 1.45462 6.0342 1.75526 5.3661 2.14276C4.698 2.53025 4.09003 3.00126 3.54219 3.55578C2.99435 4.11031 2.52668 4.71493 2.13919 5.36967C1.75169 6.02441 1.4477 6.73927 1.22723 7.51427C1.00676 8.28926 0.899864 9.0843 0.906545 9.89937C0.906545 10.7211 1.01344 11.5128 1.22723 12.2745C1.44102 13.0361 1.74167 13.751 2.12916 14.4191C2.51666 15.0872 2.98767 15.6951 3.54219 16.243C4.09671 16.7908 4.70134 17.2585 5.35608 17.646C6.01081 18.0335 6.72568 18.3375 7.50067 18.5579C8.27567 18.7784 9.0707 18.8853 9.88578 18.8786ZM9.88578 2.20289C10.594 2.20289 11.2754 2.29308 11.9302 2.47346C12.5849 2.65385 13.1962 2.91441 13.7641 3.25514C14.332 3.59587 14.8531 3.99673 15.3274 4.45772C15.8018 4.9187 16.2026 5.43648 16.53 6.01104C16.8574 6.58561 17.1146 7.20026 17.3017 7.85499C17.4887 8.50973 17.5823 9.19119 17.5823 9.89937C17.5823 10.6076 17.4921 11.289 17.3117 11.9438C17.1313 12.5985 16.8707 13.2098 16.53 13.7777C16.1893 14.3456 15.7884 14.8667 15.3274 15.341C14.8665 15.8154 14.3487 16.2162 13.7741 16.5436C13.1995 16.871 12.5849 17.1282 11.9302 17.3153C11.2754 17.5023 10.594 17.5959 9.88578 17.5959C9.1776 17.5959 8.49614 17.5057 7.8414 17.3253C7.18667 17.1449 6.57536 16.8843 6.00747 16.5436C5.43959 16.2029 4.91847 15.802 4.44412 15.341C3.96977 14.88 3.56892 14.3623 3.24155 13.7877C2.91418 13.2131 2.65696 12.5985 2.46989 11.9438C2.28283 11.289 2.18929 10.6076 2.18929 9.89937C2.18929 9.19119 2.27949 8.50973 2.45987 7.85499C2.64026 7.20026 2.90082 6.58895 3.24155 6.02107C3.58228 5.45318 3.98314 4.93207 4.44412 4.45772C4.90511 3.98337 5.42289 3.58251 5.99745 3.25514C6.57202 2.92777 7.18667 2.67056 7.8414 2.48349C8.49614 2.29642 9.1776 2.20289 9.88578 2.20289ZM9.88578 13.7476C10.4136 13.7476 10.9113 13.6474 11.379 13.447C11.8466 13.2465 12.2542 12.9693 12.6016 12.6152C12.949 12.2611 13.2229 11.8536 13.4234 11.3926C13.6238 10.9316 13.7273 10.4339 13.734 9.89937C13.734 9.37158 13.6338 8.87384 13.4334 8.40618C13.233 7.93851 12.9557 7.53097 12.6016 7.18356C12.2475 6.83615 11.84 6.56223 11.379 6.3618C10.918 6.16137 10.4203 6.05781 9.88578 6.05113C9.35798 6.05113 8.86025 6.15135 8.39258 6.35177C7.92491 6.5522 7.51737 6.82946 7.16996 7.18356C6.82255 7.53765 6.54863 7.94519 6.3482 8.40618C6.14777 8.86716 6.04422 9.3649 6.03754 9.89937C6.03754 10.4272 6.13775 10.9249 6.33818 11.3926C6.53861 11.8602 6.81587 12.2678 7.16996 12.6152C7.52406 12.9626 7.93159 13.2365 8.39258 13.437C8.85357 13.6374 9.3513 13.7409 9.88578 13.7476Z" fill="currentColor"/>
</svg>
