<svg width="22" height="22" viewBox="0 0 22 22" fill="none" xmlns="http://www.w3.org/2000/svg">
<path d="M11.0004 20.7782C9.06658 20.7782 7.17614 20.2048 5.5682 19.1304C3.96025 18.056 2.70701 16.5289 1.96695 14.7422C1.22689 12.9556 1.03326 10.9896 1.41054 9.09289C1.78782 7.19619 2.71906 5.45395 4.08651 4.08651C5.45395 2.71906 7.19619 1.78782 9.09289 1.41054C10.9896 1.03326 12.9556 1.22689 14.7422 1.96695C16.5289 2.70701 18.056 3.96025 19.1304 5.5682C20.2048 7.17614 20.7782 9.06658 20.7782 11.0004C20.7782 13.5937 19.7481 16.0807 17.9144 17.9144C16.0807 19.7481 13.5937 20.7782 11.0004 20.7782ZM11.0004 2.52433C9.32402 2.52433 7.68525 3.02144 6.29136 3.95281C4.89747 4.88418 3.81107 6.20796 3.16953 7.75677C2.528 9.30558 2.36014 11.0098 2.68719 12.654C3.01425 14.2983 3.82152 15.8086 5.00692 16.994C6.19233 18.1794 7.70263 18.9866 9.34683 19.3137C10.991 19.6407 12.6953 19.4729 14.2441 18.8313C15.7929 18.1898 17.1167 17.1034 18.0481 15.7095C18.9794 14.3156 19.4766 12.6769 19.4766 11.0004C19.4749 8.75293 18.5814 6.59794 16.9922 5.00871C15.4029 3.41948 13.2479 2.52595 11.0004 2.52433Z" fill="currentColor"/>
<path d="M8.45089 14.8564C8.23862 14.8578 8.02922 14.8073 7.84095 14.7092C7.65269 14.6111 7.49126 14.4685 7.37074 14.2938C7.25023 14.119 7.17428 13.9174 7.14951 13.7066C7.12475 13.4958 7.15192 13.2821 7.22867 13.0842L8.55478 9.66807C8.65339 9.41597 8.80312 9.18701 8.99453 8.9956C9.18595 8.80418 9.4149 8.65446 9.667 8.55584L13.0831 7.24195C13.3188 7.14966 13.5763 7.12809 13.8241 7.17989C14.0719 7.23169 14.2991 7.3546 14.4781 7.53359C14.6571 7.71258 14.78 7.93988 14.8318 8.18765C14.8836 8.43542 14.8621 8.69292 14.7698 8.92862L13.4437 12.3325C13.3451 12.5846 13.1953 12.8136 13.0039 13.005C12.8125 13.1964 12.5835 13.3461 12.3314 13.4447L8.91533 14.7586C8.76786 14.8195 8.6104 14.8527 8.45089 14.8564ZM13.5537 8.44584L10.1376 9.77807C10.0528 9.8106 9.97575 9.8606 9.91153 9.92482C9.84731 9.98904 9.79731 10.066 9.76478 10.1508L8.45089 13.567L11.8609 12.2225C11.9457 12.19 12.0227 12.14 12.0869 12.0758C12.1511 12.0115 12.2011 11.9345 12.2337 11.8497L13.5537 8.44584Z" fill="currentColor"/>
</svg>
