<svg width="14" height="21" viewBox="0 0 14 21" fill="none" xmlns="http://www.w3.org/2000/svg">
<path d="M10.4459 6.0103C11.415 6.56948 12.2197 7.37404 12.7791 8.34302C13.3385 9.312 13.6327 10.4112 13.6323 11.5301V18.8133H9.83596C9.64787 19.3463 9.29906 19.8079 8.83762 20.1345C8.37617 20.461 7.82481 20.6363 7.25953 20.6363C6.69425 20.6363 6.14288 20.461 5.68144 20.1345C5.21999 19.8079 4.87118 19.3463 4.68309 18.8133H0.886719V11.5301C0.886311 10.4112 1.1806 9.312 1.73996 8.34302C2.29933 7.37404 3.10404 6.56948 4.07312 6.0103C3.92353 5.74161 3.80881 5.45495 3.73172 5.15725H0.886719V3.33645H3.73263C3.93514 2.55511 4.39137 1.86313 5.02972 1.36914C5.66806 0.875149 6.45237 0.607117 7.25953 0.607117C8.06669 0.607117 8.851 0.875149 9.48934 1.36914C10.1277 1.86313 10.5839 2.55511 10.7864 3.33645H13.6323V5.15725H10.7864C10.7095 5.45473 10.5954 5.74133 10.4468 6.0103H10.4459ZM9.12312 7.3759C8.55986 7.7125 7.9157 7.88967 7.25953 7.88845C6.60339 7.8894 5.9593 7.71225 5.39594 7.3759C4.59501 7.73542 3.91511 8.31884 3.43812 9.05588C2.96114 9.79292 2.70742 10.6521 2.70752 11.5301V16.9925H4.52832V13.3509C4.52832 12.6265 4.81607 11.9318 5.32827 11.4196C5.84048 10.9074 6.53517 10.6197 7.25953 10.6197C7.98389 10.6197 8.67858 10.9074 9.19078 11.4196C9.70298 11.9318 9.99073 12.6265 9.99073 13.3509V16.9925H11.8115V11.5301C11.8116 10.6521 11.5579 9.79292 11.0809 9.05588C10.6039 8.31884 9.92404 7.73542 9.12312 7.3759ZM7.25953 12.4405C7.01807 12.4405 6.78651 12.5364 6.61578 12.7071C6.44504 12.8778 6.34913 13.1094 6.34913 13.3509V17.9029C6.34913 18.1443 6.44504 18.3759 6.61578 18.5466C6.78651 18.7174 7.01807 18.8133 7.25953 18.8133C7.50098 18.8133 7.73255 18.7174 7.90328 18.5466C8.07401 18.3759 8.16993 18.1443 8.16993 17.9029V13.3509C8.16993 13.1094 8.07401 12.8778 7.90328 12.7071C7.73255 12.5364 7.50098 12.4405 7.25953 12.4405ZM7.25953 6.06765C7.74243 6.06765 8.20556 5.87582 8.54703 5.53435C8.8885 5.19288 9.08033 4.72976 9.08033 4.24685C9.08033 3.76394 8.8885 3.30081 8.54703 2.95935C8.20556 2.61788 7.74243 2.42605 7.25953 2.42605C6.77662 2.42605 6.31349 2.61788 5.97203 2.95935C5.63056 3.30081 5.43873 3.76394 5.43873 4.24685C5.43873 4.72976 5.63056 5.19288 5.97203 5.53435C6.31349 5.87582 6.77662 6.06765 7.25953 6.06765Z" fill="currentColor"/>
</svg>
