<svg width="22" height="22" viewBox="0 0 22 22" fill="none" xmlns="http://www.w3.org/2000/svg">
<path d="M16.797 5.09778H10.4256C9.64367 5.09778 9.00977 5.72612 9.00977 6.50123V12.8168C9.00977 13.5919 9.64367 14.2202 10.4256 14.2202H16.797C17.579 14.2202 18.2129 13.5919 18.2129 12.8168V6.50123C18.2129 5.72612 17.579 5.09778 16.797 5.09778Z" stroke="currentColor" stroke-width="2.06011" stroke-linecap="round" stroke-linejoin="round"/>
<path d="M6.88717 17.7287H17.6619C18.0333 17.7303 18.3893 17.8764 18.653 18.1357L20.3379 19.8339M6.88717 17.7287C6.89417 17.6119 6.89417 17.4947 6.88717 17.3779C6.84133 16.747 6.55037 16.1584 6.07553 15.736C5.6007 15.3135 4.97903 15.0901 4.34138 15.1129C3.70374 15.1356 3.09986 15.4027 2.65687 15.8579C2.21387 16.313 1.96632 16.9208 1.96632 17.5533C1.96632 18.1858 2.21387 18.7936 2.65687 19.2487C3.09986 19.7039 3.70374 19.971 4.34138 19.9937C4.97903 20.0165 5.6007 19.7931 6.07553 19.3706C6.55037 18.9482 6.84133 18.3596 6.88717 17.7287ZM1.93164 1.58905H3.34751C3.72302 1.58905 4.08315 1.73691 4.34867 2.00011C4.6142 2.26331 4.76337 2.62028 4.76337 2.9925V14.9218M13.2586 10.7115H14.6744" stroke="currentColor" stroke-width="2.06011" stroke-linecap="round" stroke-linejoin="round"/>
</svg>
