<svg width="20" height="20" viewBox="0 0 20 20" fill="none" xmlns="http://www.w3.org/2000/svg">
<path d="M9.67015 19.9467C10.5551 19.9467 11.4077 19.8316 12.2279 19.6014C13.0481 19.3711 13.818 19.0474 14.5374 18.6301C15.2569 18.2128 15.9117 17.7055 16.5016 17.1083C17.0916 16.5112 17.5952 15.86 18.0125 15.155C18.4298 14.4499 18.7572 13.68 18.9946 12.8454C19.2321 12.0108 19.3472 11.1546 19.34 10.2769C19.34 9.39191 19.2249 8.53932 18.9946 7.71911C18.7644 6.89891 18.4406 6.12906 18.0233 5.40958C17.606 4.6901 17.0988 4.03537 16.5016 3.44539C15.9045 2.85542 15.2533 2.35178 14.5482 1.93448C13.8431 1.51718 13.0733 1.18982 12.2387 0.952391C11.4041 0.714962 10.5479 0.599844 9.67015 0.607038C8.78519 0.607038 7.9326 0.722157 7.11239 0.952391C6.29218 1.18262 5.52234 1.50639 4.80286 1.92369C4.08338 2.34099 3.42865 2.84822 2.83867 3.44539C2.2487 4.04256 1.74506 4.69369 1.32776 5.39879C0.910462 6.10388 0.583098 6.87372 0.345669 7.70832C0.10824 8.54292 -0.0068774 9.3991 0.000317418 10.2769C0.000317418 11.1618 0.115434 12.0144 0.345669 12.8346C0.575903 13.6548 0.899669 14.4247 1.31697 15.1442C1.73427 15.8636 2.2415 16.5184 2.83867 17.1083C3.43584 17.6983 4.08697 18.202 4.79206 18.6193C5.49716 19.0366 6.267 19.3639 7.1016 19.6014C7.9362 19.8388 8.79238 19.9539 9.67015 19.9467ZM9.67015 1.98844C10.4328 1.98844 11.1667 2.08557 11.8718 2.27983C12.5769 2.47409 13.2352 2.75469 13.8467 3.12163C14.4583 3.48856 15.0195 3.92025 15.5303 4.41669C16.0412 4.91314 16.4728 5.47073 16.8254 6.08949C17.1779 6.70824 17.4549 7.37017 17.6564 8.07526C17.8579 8.78035 17.9586 9.51422 17.9586 10.2769C17.9586 11.0395 17.8614 11.7734 17.6672 12.4785C17.4729 13.1836 17.1923 13.8419 16.8254 14.4535C16.4585 15.065 16.0268 15.6262 15.5303 16.137C15.0339 16.6479 14.4763 17.0796 13.8575 17.4321C13.2388 17.7847 12.5769 18.0617 11.8718 18.2631C11.1667 18.4646 10.4328 18.5653 9.67015 18.5653C8.9075 18.5653 8.17363 18.4682 7.46854 18.2739C6.76344 18.0796 6.10512 17.7991 5.49356 17.4321C4.882 17.0652 4.3208 16.6335 3.80997 16.137C3.29914 15.6406 2.86745 15.083 2.51491 14.4643C2.16236 13.8455 1.88536 13.1836 1.6839 12.4785C1.48245 11.7734 1.38172 11.0395 1.38172 10.2769C1.38172 9.51422 1.47885 8.78035 1.67311 8.07526C1.86737 7.37017 2.14797 6.71184 2.51491 6.10028C2.88184 5.48872 3.31353 4.92753 3.80997 4.41669C4.30641 3.90586 4.86401 3.47417 5.48277 3.12163C6.10152 2.76908 6.76344 2.49208 7.46854 2.29063C8.17363 2.08917 8.9075 1.98844 9.67015 1.98844ZM9.67015 14.4211C10.2385 14.4211 10.7746 14.3132 11.2782 14.0973C11.7818 13.8815 12.2207 13.5829 12.5948 13.2016C12.969 12.8202 13.264 12.3814 13.4798 11.8849C13.6956 11.3885 13.8072 10.8525 13.8144 10.2769C13.8144 9.70848 13.7064 9.17247 13.4906 8.66883C13.2748 8.16519 12.9762 7.72631 12.5948 7.35218C12.2135 6.97805 11.7746 6.68306 11.2782 6.46722C10.7817 6.25137 10.2457 6.13985 9.67015 6.13266C9.10176 6.13266 8.56575 6.24058 8.06211 6.45642C7.55847 6.67227 7.11959 6.97085 6.74546 7.35218C6.37133 7.7335 6.07634 8.17239 5.8605 8.66883C5.64465 9.16527 5.53313 9.70129 5.52594 10.2769C5.52594 10.8453 5.63386 11.3813 5.8497 11.8849C6.06555 12.3885 6.36413 12.8274 6.74546 13.2016C7.12678 13.5757 7.56567 13.8707 8.06211 14.0865C8.55855 14.3024 9.09456 14.4139 9.67015 14.4211Z" fill="currentColor"/>
</svg>
