<svg width="25" height="26" viewBox="0 0 25 26" fill="none" xmlns="http://www.w3.org/2000/svg">
<g clip-path="url(#clip0_2001_13500)">
<path d="M18.5458 11.5857C19.524 11.5857 20.4802 11.2957 21.2935 10.7523C22.1068 10.2089 22.7408 9.43655 23.1152 8.53289C23.4897 7.62922 23.5878 6.63483 23.3971 5.67542C23.2064 4.71602 22.7356 3.83469 22.0441 3.14287C21.3526 2.45104 20.4714 1.97978 19.5121 1.78868C18.5528 1.59757 17.5584 1.6952 16.6545 2.06922C15.7507 2.44323 14.9781 3.07685 14.4343 3.88994C13.8905 4.70304 13.6001 5.65911 13.5996 6.63728C13.6008 7.94893 14.1222 9.20654 15.0495 10.1342C15.9768 11.0619 17.2341 11.5839 18.5458 11.5857ZM18.5458 2.3998C19.3842 2.39987 20.2038 2.64859 20.9009 3.11448C21.598 3.58038 22.1412 4.24254 22.462 5.01721C22.7827 5.79187 22.8665 6.64426 22.7028 7.46656C22.5391 8.28886 22.1352 9.04414 21.5422 9.63687C20.9492 10.2296 20.1937 10.6332 19.3713 10.7965C18.549 10.9599 17.6966 10.8757 16.9221 10.5546C16.1476 10.2336 15.4856 9.68999 15.0201 8.9927C14.5545 8.29542 14.3061 7.47572 14.3064 6.63728C14.3081 5.51362 14.7554 4.4365 15.5501 3.64214C16.3448 2.84777 17.4221 2.401 18.5458 2.3998Z" fill="currentColor"/>
<path d="M21.7081 11.4523C21.6142 11.4523 21.5241 11.4896 21.4577 11.556C21.3913 11.6224 21.354 11.7125 21.354 11.8064V20.5359H20.2696C20.0116 20.151 19.6363 19.8597 19.1995 19.7052V16.8357C19.1996 16.7892 19.1905 16.7431 19.1727 16.7001C19.1549 16.6571 19.1288 16.618 19.0959 16.5851C19.063 16.5522 19.024 16.5262 18.981 16.5084C18.938 16.4906 18.8919 16.4815 18.8454 16.4815H17.2909V12.7813C17.291 12.7348 17.2819 12.6888 17.2641 12.6458C17.2463 12.6029 17.2203 12.5638 17.1874 12.5309C17.1546 12.498 17.1156 12.4719 17.0726 12.4541C17.0297 12.4363 16.9836 12.4272 16.9371 12.4272H13.1199C13.0734 12.4272 13.0274 12.4363 12.9844 12.4541C12.9415 12.4719 12.9025 12.498 12.8696 12.5309C12.8367 12.5638 12.8107 12.6029 12.7929 12.6458C12.7752 12.6888 12.7661 12.7348 12.7661 12.7813V16.4815H11.2113C11.1648 16.4815 11.1187 16.4907 11.0758 16.5085C11.0329 16.5263 10.9938 16.5524 10.961 16.5853C10.9281 16.6182 10.9021 16.6572 10.8843 16.7002C10.8666 16.7431 10.8574 16.7892 10.8575 16.8357V20.5359H8.70269V10.5087H13.6866C13.7785 10.5057 13.8656 10.4671 13.9296 10.4011C13.9935 10.335 14.0292 10.2467 14.0292 10.1548C14.0292 10.0628 13.9935 9.9745 13.9296 9.90845C13.8656 9.84239 13.7785 9.80378 13.6866 9.80078H8.34853C8.2547 9.80078 8.16472 9.83805 8.09837 9.9044C8.03202 9.97075 7.99475 10.0607 7.99475 10.1546V12.1882C7.98569 12.1882 7.97776 12.1855 7.9687 12.1855H6.43463C4.95067 12.1872 3.52799 12.7775 2.47875 13.8269C1.4295 14.8763 0.83939 16.2991 0.837891 17.783V20.5102C0.838091 20.7048 0.915499 20.8913 1.05312 21.0289C1.19074 21.1664 1.37732 21.2437 1.57189 21.2438H2.56415C2.4546 21.7111 2.50603 22.2017 2.71011 22.6361C2.91419 23.0705 3.25895 23.4233 3.68855 23.6373H1.19205C1.09812 23.6373 1.00804 23.6746 0.941622 23.741C0.875204 23.8074 0.837891 23.8975 0.837891 23.9914C0.837891 24.0853 0.875204 24.1754 0.941622 24.2418C1.00804 24.3083 1.09812 24.3456 1.19205 24.3456H21.7081C21.8021 24.3456 21.8921 24.3083 21.9586 24.2418C22.025 24.1754 22.0623 24.0853 22.0623 23.9914C22.0623 23.8975 22.025 23.8074 21.9586 23.741C21.8921 23.6746 21.8021 23.6373 21.7081 23.6373H19.4521C19.8817 23.4233 20.2265 23.0705 20.4306 22.6361C20.6347 22.2017 20.6861 21.7111 20.5765 21.2438H21.7093C21.7558 21.2439 21.8018 21.2348 21.8448 21.217C21.8877 21.1992 21.9268 21.1732 21.9597 21.1403C21.9926 21.1075 22.0187 21.0685 22.0365 21.0255C22.0543 20.9826 22.0634 20.9365 22.0634 20.89V11.8064C22.0634 11.7598 22.0542 11.7137 22.0364 11.6706C22.0185 11.6276 21.9923 11.5885 21.9593 11.5556C21.9263 11.5227 21.8871 11.4966 21.844 11.4789C21.8009 11.4612 21.7547 11.4521 21.7081 11.4523ZM18.4912 19.5821H18.4874C18.1862 19.5825 17.8884 19.6467 17.6137 19.7703C17.3389 19.894 17.0934 20.0743 16.8933 20.2995H15.3831V17.1883H18.4916L18.4912 19.5821ZM13.4741 13.1321H16.5826V16.2406H13.4741V13.1321ZM11.5654 17.1872H14.6744V20.2965H11.5654V17.1872ZM1.57189 20.5359C1.56849 20.5359 1.56511 20.5353 1.56195 20.534C1.55879 20.5328 1.55591 20.5309 1.55349 20.5285C1.55106 20.5261 1.54914 20.5233 1.54783 20.5201C1.54651 20.517 1.54584 20.5136 1.54584 20.5102V17.783C1.54734 16.4869 2.0629 15.2443 2.97941 14.3279C3.89592 13.4115 5.13853 12.896 6.43463 12.8946H7.9687C7.97554 12.8946 7.98211 12.8973 7.98699 12.9021C7.99186 12.9069 7.99465 12.9134 7.99475 12.9203V20.5095C7.99475 20.5129 7.99407 20.5162 7.99276 20.5194C7.99145 20.5225 7.98952 20.5254 7.9871 20.5277C7.98467 20.5301 7.9818 20.532 7.97864 20.5333C7.97548 20.5345 7.9721 20.5352 7.9687 20.5351H6.43274C6.23728 20.2417 5.97236 20.001 5.66153 19.8346C5.3507 19.6682 5.00357 19.5811 4.65098 19.5811C4.29839 19.5811 3.95126 19.6682 3.64043 19.8346C3.3296 20.001 3.06468 20.2417 2.86922 20.5351L1.57189 20.5359ZM3.21659 21.7249C3.21668 21.53 3.25677 21.3372 3.33439 21.1585C3.40153 21.1021 3.44484 21.0224 3.45559 20.9354C3.64573 20.6489 3.93255 20.4404 4.26368 20.3479C4.59481 20.2554 4.94816 20.2851 5.25923 20.4315C5.57029 20.5779 5.81831 20.8314 5.95801 21.1455C6.09771 21.4597 6.11976 21.8136 6.02015 22.1426C5.92053 22.4717 5.70589 22.754 5.41542 22.9379C5.12494 23.1218 4.778 23.1951 4.43795 23.1444C4.0979 23.0938 3.78741 22.9225 3.56318 22.6619C3.33895 22.4012 3.21593 22.0687 3.21659 21.7249ZM5.61454 23.6373C6.04435 23.4235 6.38928 23.0708 6.59333 22.6363C6.79738 22.2018 6.84856 21.7111 6.73857 21.2438H7.96945C8.04649 21.2433 8.12295 21.2305 8.19599 21.2061C8.24389 21.2303 8.29673 21.2433 8.35042 21.2438H16.4006C16.2912 21.7113 16.3428 22.202 16.5472 22.6364C16.7516 23.0708 17.0967 23.4235 17.5265 23.6373H5.61454ZM18.4897 23.16C18.2059 23.16 17.9285 23.0759 17.6926 22.9182C17.4566 22.7605 17.2728 22.5365 17.1642 22.2743C17.0556 22.0121 17.0272 21.7236 17.0825 21.4453C17.1379 21.167 17.2745 20.9114 17.4752 20.7107C17.6758 20.51 17.9315 20.3734 18.2098 20.318C18.4881 20.2627 18.7766 20.2911 19.0388 20.3997C19.3009 20.5083 19.525 20.6922 19.6827 20.9281C19.8403 21.1641 19.9245 21.4415 19.9245 21.7252C19.9245 21.9138 19.8873 22.1006 19.8151 22.2748C19.7428 22.449 19.6369 22.6073 19.5034 22.7406C19.37 22.8738 19.2115 22.9795 19.0372 23.0514C18.8629 23.1234 18.6761 23.1603 18.4874 23.16H18.4897Z" fill="currentColor"/>
<path d="M6.32255 17.9039C6.3691 17.9039 6.41521 17.8948 6.45822 17.877C6.50124 17.8592 6.54032 17.833 6.57322 17.8001C6.60612 17.7672 6.6322 17.7281 6.64996 17.685C6.66772 17.642 6.67681 17.5959 6.67671 17.5493V14.4487C6.67671 14.4022 6.66755 14.3561 6.64975 14.3132C6.63195 14.2702 6.60586 14.2312 6.57298 14.1983C6.54009 14.1654 6.50105 14.1393 6.45808 14.1215C6.41511 14.1037 6.36906 14.0945 6.32255 14.0945C5.4381 14.0955 4.59016 14.4473 3.96472 15.0727C3.33929 15.698 2.98743 16.5459 2.98633 17.4304C2.99336 17.4698 2.99336 17.5102 2.98633 17.5497C2.98628 17.5962 2.99541 17.6423 3.01319 17.6853C3.03097 17.7283 3.05705 17.7673 3.08995 17.8002C3.12285 17.8331 3.16191 17.8592 3.2049 17.877C3.24789 17.8948 3.29397 17.9039 3.34049 17.9039H6.32255ZM5.96838 14.8267V17.1959H3.70485C3.75887 16.6033 4.01205 16.0465 4.42311 15.6162C4.83417 15.186 5.37887 14.9077 5.96838 14.8267ZM18.5475 6.99281H21.0992C21.1931 6.99281 21.2832 6.9555 21.3496 6.88908C21.416 6.82266 21.4533 6.73258 21.4533 6.63865C21.4533 6.54472 21.416 6.45464 21.3496 6.38822C21.2832 6.3218 21.1931 6.28449 21.0992 6.28449H18.9017V4.0874C18.9033 4.03995 18.8952 3.99266 18.8782 3.94836C18.8611 3.90406 18.8352 3.86365 18.8022 3.82953C18.7692 3.79541 18.7296 3.76828 18.6859 3.74976C18.6422 3.73123 18.5952 3.72168 18.5477 3.72168C18.5002 3.72168 18.4532 3.73123 18.4095 3.74976C18.3658 3.76828 18.3263 3.79541 18.2932 3.82953C18.2602 3.86365 18.2344 3.90406 18.2173 3.94836C18.2002 3.99266 18.1922 4.03995 18.1938 4.0874V6.63752C18.1936 6.6841 18.2026 6.73027 18.2203 6.77337C18.2379 6.81647 18.264 6.85565 18.2968 6.88866C18.3297 6.92167 18.3688 6.94786 18.4118 6.96574C18.4548 6.98361 18.501 6.99281 18.5475 6.99281Z" fill="currentColor"/>
</g>
<defs>
<clipPath id="clip0_2001_13500">
<rect width="24.1645" height="24.1645" fill="white" transform="translate(0.0820312 0.936523)"/>
</clipPath>
</defs>
</svg>
