<svg width="26" height="26" viewBox="0 0 26 26" fill="none" xmlns="http://www.w3.org/2000/svg">
<path d="M22.4694 11.6116C22.3732 11.6116 22.281 11.6498 22.213 11.7178C22.145 11.7858 22.1068 11.878 22.1068 11.9742V20.9109H20.9967C20.7326 20.5169 20.3484 20.2187 19.9012 20.0605V17.1229C19.9013 17.0752 19.8919 17.0281 19.8737 16.9841C19.8555 16.94 19.8288 16.9 19.7951 16.8664C19.7614 16.8327 19.7215 16.806 19.6774 16.7878C19.6334 16.7696 19.5863 16.7602 19.5386 16.7603H17.9473V12.9722C17.9473 12.9246 17.938 12.8775 17.9198 12.8335C17.9016 12.7895 17.875 12.7495 17.8413 12.7159C17.8077 12.6822 17.7677 12.6555 17.7238 12.6373C17.6798 12.619 17.6327 12.6097 17.5851 12.6097H13.6772C13.6296 12.6097 13.5825 12.619 13.5385 12.6373C13.4945 12.6555 13.4546 12.6822 13.4209 12.7159C13.3873 12.7495 13.3606 12.7895 13.3425 12.8335C13.3243 12.8775 13.3149 12.9246 13.315 12.9722V16.7603H11.7232C11.6756 16.7603 11.6285 16.7697 11.5845 16.7879C11.5406 16.8061 11.5006 16.8328 11.467 16.8665C11.4334 16.9002 11.4067 16.9402 11.3885 16.9841C11.3703 17.0281 11.361 17.0753 11.3611 17.1229V20.9109H9.15509V10.6457H14.2574C14.3514 10.6426 14.4406 10.6031 14.5061 10.5354C14.5715 10.4678 14.6081 10.3774 14.6081 10.2833C14.6081 10.1892 14.5715 10.0987 14.5061 10.0311C14.4406 9.9635 14.3514 9.92397 14.2574 9.9209H8.79251C8.69646 9.9209 8.60433 9.95906 8.53641 10.027C8.46849 10.0949 8.43033 10.187 8.43033 10.2831V12.365C8.42105 12.365 8.41293 12.3623 8.40366 12.3623H6.83316C5.31396 12.364 3.8575 12.9683 2.78334 14.0426C1.70918 15.1169 1.10505 16.5735 1.10352 18.0927V20.8846C1.10372 21.0838 1.18297 21.2748 1.32385 21.4156C1.46474 21.5564 1.65575 21.6356 1.85494 21.6357H2.87076C2.75862 22.1141 2.81127 22.6163 3.0202 23.061C3.22912 23.5057 3.58207 23.8669 4.02187 24.0859H1.46609C1.36993 24.0859 1.27771 24.1241 1.20971 24.1921C1.14172 24.2601 1.10352 24.3524 1.10352 24.4485C1.10352 24.5447 1.14172 24.6369 1.20971 24.7049C1.27771 24.7729 1.36993 24.8111 1.46609 24.8111H22.4694C22.5655 24.8111 22.6577 24.7729 22.7257 24.7049C22.7937 24.6369 22.8319 24.5447 22.8319 24.4485C22.8319 24.3524 22.7937 24.2601 22.7257 24.1921C22.6577 24.1241 22.5655 24.0859 22.4694 24.0859H20.1598C20.5996 23.8669 20.9526 23.5057 21.1615 23.061C21.3704 22.6163 21.4231 22.1141 21.3109 21.6357H22.4705C22.5181 21.6357 22.5653 21.6264 22.6092 21.6082C22.6532 21.59 22.6932 21.5634 22.7269 21.5297C22.7605 21.4961 22.7873 21.4562 22.8055 21.4122C22.8237 21.3682 22.8331 21.3211 22.8331 21.2735V11.9742C22.8331 11.9265 22.8237 11.8792 22.8054 11.8352C22.7871 11.7911 22.7603 11.7511 22.7265 11.7174C22.6927 11.6837 22.6526 11.657 22.6085 11.6389C22.5643 11.6207 22.5171 11.6115 22.4694 11.6116ZM19.1761 19.9345H19.1722C18.8638 19.935 18.5589 20.0006 18.2777 20.1272C17.9964 20.2538 17.7451 20.4384 17.5402 20.669H15.9941V17.4839H19.1765L19.1761 19.9345ZM14.0398 13.3313H17.2221V16.5137H14.0398V13.3313ZM12.0858 17.4827H15.2686V20.6659H12.0858V17.4827ZM1.85494 20.9109C1.85146 20.911 1.848 20.9103 1.84477 20.909C1.84153 20.9077 1.83859 20.9058 1.83611 20.9034C1.83363 20.9009 1.83166 20.898 1.83031 20.8948C1.82897 20.8916 1.82827 20.8881 1.82827 20.8846V18.0927C1.82981 16.7658 2.35761 15.4937 3.29589 14.5555C4.23416 13.6173 5.50629 13.0896 6.83316 13.0882H8.40366C8.41067 13.0882 8.41739 13.0909 8.42238 13.0959C8.42737 13.1008 8.43023 13.1075 8.43033 13.1145V20.8839C8.43033 20.8874 8.42964 20.8908 8.42829 20.894C8.42695 20.8972 8.42498 20.9001 8.42249 20.9026C8.42001 20.905 8.41707 20.907 8.41384 20.9083C8.4106 20.9096 8.40714 20.9102 8.40366 20.9102H6.83122C6.63112 20.6097 6.35992 20.3634 6.0417 20.193C5.72349 20.0226 5.36812 19.9335 5.00716 19.9335C4.6462 19.9335 4.29082 20.0226 3.97261 20.193C3.65439 20.3634 3.38319 20.6097 3.18309 20.9102L1.85494 20.9109ZM3.5387 22.1281C3.53879 21.9286 3.57984 21.7313 3.6593 21.5483C3.72804 21.4906 3.77237 21.409 3.78338 21.3199C3.97803 21.0266 4.27166 20.8132 4.61066 20.7185C4.94965 20.6238 5.31139 20.6542 5.62984 20.8041C5.9483 20.954 6.20221 21.2134 6.34522 21.535C6.48824 21.8566 6.51082 22.219 6.40884 22.5558C6.30686 22.8927 6.08712 23.1817 5.78974 23.37C5.49237 23.5583 5.1372 23.6333 4.78907 23.5814C4.44094 23.5296 4.12308 23.3542 3.89352 23.0874C3.66397 22.8206 3.53803 22.4801 3.5387 22.1281ZM5.9936 24.0859C6.43361 23.8671 6.78673 23.506 6.99563 23.0612C7.20452 22.6164 7.25692 22.114 7.14432 21.6357H8.40443C8.48329 21.6351 8.56157 21.6221 8.63635 21.597C8.68539 21.6219 8.73948 21.6351 8.79445 21.6357H17.0358C16.9238 22.1142 16.9767 22.6166 17.1859 23.0613C17.3951 23.5061 17.7484 23.8671 18.1885 24.0859H5.9936ZM19.1745 23.5974C18.884 23.5974 18.6 23.5112 18.3585 23.3498C18.1169 23.1884 17.9287 22.959 17.8175 22.6906C17.7063 22.4222 17.6772 22.1269 17.7339 21.842C17.7906 21.557 17.9305 21.2953 18.1359 21.0899C18.3413 20.8845 18.603 20.7446 18.888 20.6879C19.1729 20.6312 19.4682 20.6603 19.7366 20.7715C20.005 20.8827 20.2344 21.0709 20.3958 21.3125C20.5572 21.554 20.6434 21.838 20.6434 22.1285C20.6434 22.3216 20.6053 22.5128 20.5313 22.6912C20.4574 22.8695 20.349 23.0315 20.2123 23.168C20.0757 23.3044 19.9135 23.4125 19.735 23.4862C19.5565 23.5599 19.3653 23.5977 19.1722 23.5974H19.1745Z" fill="currentColor"/>
<g clip-path="url(#clip0_2001_13512)">
<path d="M18.7459 11.3534C18.2165 11.3532 17.6947 11.2274 17.2233 10.9864C16.7519 10.7453 16.3445 10.3959 16.0344 9.96678C15.7243 9.53765 15.5205 9.04109 15.4397 8.51787C15.3588 7.99466 15.4032 7.45973 15.5693 6.95702C15.7354 6.45431 16.0183 5.99818 16.3949 5.62609C16.7716 5.254 17.2311 4.97657 17.7358 4.81659C18.2404 4.65662 18.7759 4.61866 19.2981 4.70584C19.8203 4.79302 20.3143 5.00285 20.7397 5.31808C20.7966 5.36434 20.8335 5.43078 20.8426 5.50355C20.8518 5.57633 20.8325 5.64983 20.7888 5.70876C20.7452 5.76768 20.6804 5.80747 20.6081 5.81985C20.5358 5.83223 20.4615 5.81624 20.4007 5.77521C19.8987 5.40249 19.2856 5.21 18.6606 5.22888C18.0356 5.24776 17.4353 5.47691 16.9567 5.87927C16.478 6.28163 16.1491 6.83367 16.0231 7.44612C15.8971 8.05857 15.9814 8.69561 16.2623 9.25423C16.5432 9.81286 17.0044 10.2604 17.5711 10.5245C18.1379 10.7885 18.7772 10.8537 19.3856 10.7094C19.994 10.5651 20.536 10.2199 20.9238 9.72942C21.3117 9.23897 21.5227 8.63203 21.5229 8.00676C21.5225 7.86032 21.5106 7.71414 21.4873 7.56956C21.4815 7.53216 21.4831 7.49398 21.4921 7.45721C21.5011 7.42043 21.5172 7.38578 21.5395 7.35524C21.5619 7.32469 21.59 7.29884 21.6223 7.27917C21.6547 7.2595 21.6906 7.2464 21.728 7.2406C21.7654 7.2348 21.8036 7.23643 21.8403 7.24538C21.8771 7.25434 21.9118 7.27045 21.9423 7.2928C21.9729 7.31515 21.9987 7.3433 22.0184 7.37563C22.038 7.40797 22.0511 7.44387 22.0569 7.48127C22.0824 7.65524 22.0943 7.83094 22.0925 8.00676C22.0918 8.8941 21.739 9.74488 21.1115 10.3723C20.4841 10.9998 19.6333 11.3526 18.7459 11.3534Z" fill="#23A321"/>
<path d="M19.1026 9.07516C19.0272 9.07485 18.955 9.04463 18.9018 8.99114L17.549 7.63826C17.5023 7.58378 17.4779 7.51369 17.4807 7.44201C17.4834 7.37033 17.5132 7.30233 17.5639 7.25161C17.6146 7.20088 17.6826 7.17116 17.7543 7.1684C17.826 7.16563 17.8961 7.19001 17.9505 7.23667L19.1026 8.38733L22.5333 4.95813C22.5877 4.91147 22.6578 4.88709 22.7295 4.88986C22.8012 4.89263 22.8692 4.92235 22.9199 4.97307C22.9706 5.02379 23.0003 5.09179 23.0031 5.16347C23.0059 5.23515 22.9815 5.30524 22.9348 5.35973L19.3034 8.99114C19.2503 9.04463 19.178 9.07485 19.1026 9.07516Z" fill="currentColor"/>
</g>
<defs>
<clipPath id="clip0_2001_13512">
<rect width="9.11414" height="9.11414" fill="white" transform="translate(14.6523 3.4502)"/>
</clipPath>
</defs>
</svg>
