<svg width="23" height="24" viewBox="0 0 23 24" fill="none" xmlns="http://www.w3.org/2000/svg">
<g clip-path="url(#clip0_573_684)">
<path fill-rule="evenodd" clip-rule="evenodd" d="M9.58331 3.37508C9.58331 3.12092 9.68428 2.87716 9.864 2.69744C10.0437 2.51771 10.2875 2.41675 10.5416 2.41675H12.4583C12.7125 2.41675 12.9562 2.51771 13.136 2.69744C13.3157 2.87716 13.4166 3.12092 13.4166 3.37508V4.64008L16.6069 5.171C17.0543 5.24584 17.4606 5.4769 17.7536 5.82311C18.0467 6.16931 18.2074 6.60822 18.2074 7.06179V10.3508L20.1815 11.0082C20.3387 11.0607 20.4834 11.1452 20.6063 11.2564C20.7292 11.3676 20.8276 11.5031 20.8955 11.6544C20.9633 11.8056 20.999 11.9693 21.0003 12.135C21.0016 12.3007 20.9685 12.465 20.9031 12.6172L18.4872 18.2551L19.595 18.81C19.7115 18.8638 19.816 18.9405 19.9024 19.0355C19.9887 19.1305 20.055 19.2418 20.0975 19.3629C20.14 19.484 20.1577 19.6125 20.1496 19.7405C20.1414 19.8686 20.1077 19.9938 20.0503 20.1086C19.9929 20.2234 19.913 20.3255 19.8154 20.4088C19.7178 20.4921 19.6045 20.555 19.4821 20.5937C19.3597 20.6324 19.2308 20.6461 19.1031 20.6341C18.9753 20.622 18.8512 20.5844 18.7383 20.5235L16.1901 19.2499C15.924 19.1169 15.6307 19.0477 15.3333 19.0477C15.0359 19.0477 14.7426 19.1169 14.4766 19.2499L13.2144 19.8814C12.6821 20.1476 12.0951 20.2862 11.5 20.2862C10.9048 20.2862 10.3178 20.1476 9.78552 19.8814L8.52339 19.2499C8.25724 19.1168 7.96374 19.0475 7.66617 19.0475C7.36859 19.0475 7.07509 19.1168 6.80894 19.2499L4.26169 20.5245C4.03421 20.6381 3.77091 20.6567 3.52973 20.5761C3.28854 20.4956 3.08922 20.3226 2.9756 20.0951C2.86199 19.8676 2.8434 19.6044 2.92391 19.3632C3.00443 19.122 3.17746 18.9227 3.40494 18.809L5.1606 17.9312L2.18785 12.7294C2.09993 12.5755 2.04724 12.404 2.03359 12.2273C2.01994 12.0506 2.04567 11.8731 2.10892 11.7075C2.17217 11.542 2.27137 11.3925 2.39937 11.2699C2.52737 11.1473 2.68097 11.0547 2.8491 10.9986L4.79165 10.3508V7.06179C4.79155 6.60822 4.95232 6.16931 5.24535 5.82311C5.53839 5.4769 5.94471 5.24584 6.39206 5.171L9.58331 4.64008V3.37508ZM6.94789 17.199C7.7736 17.0414 8.62821 17.1596 9.38014 17.5354L10.6413 18.167C10.9076 18.3002 11.2013 18.3696 11.499 18.3696C11.7968 18.3696 12.0904 18.3002 12.3567 18.167L13.6179 17.5354C14.1033 17.2928 14.6346 17.1559 15.1768 17.1339C15.719 17.112 16.2597 17.2054 16.7631 17.408L18.8331 12.5799L11.5 10.1361L4.2866 12.5396L6.94789 17.199ZM16.2916 9.71254V7.06179L11.5 6.2635L6.70831 7.06179V9.71254L10.8934 8.31721C11.2868 8.18604 11.7122 8.18604 12.1056 8.31721L16.2916 9.71254Z" fill="currentColor"/>
</g>
<defs>
<clipPath id="clip0_573_684">
<rect width="23" height="23" fill="white" transform="translate(0 0.5)"/>
</clipPath>
</defs>
</svg>
