<svg width="18" height="18" viewBox="0 0 18 18" fill="none" xmlns="http://www.w3.org/2000/svg">
<path d="M15 15.75C14.1075 15.75 13.215 15.4875 12.3975 15.015C12.15 14.8725 11.85 14.8725 11.595 15.015C10.8076 15.479 9.91024 15.7238 8.99625 15.7238C8.08226 15.7238 7.18494 15.479 6.3975 15.015C6.15 14.8725 5.85 14.8725 5.595 15.015C4.785 15.4875 3.8925 15.75 3 15.75H2.25C1.8375 15.75 1.5 16.0875 1.5 16.5C1.5 16.9125 1.8375 17.25 2.25 17.25H3C4.035 17.25 5.055 16.9875 6 16.5075C6.92811 16.9844 7.95654 17.2332 9 17.2332C10.0435 17.2332 11.0719 16.9844 12 16.5075C12.945 16.995 13.965 17.25 15 17.25H15.75C16.1625 17.25 16.5 16.9125 16.5 16.5C16.5 16.0875 16.1625 15.75 15.75 15.75H15ZM2.9625 14.25H3C3.9525 14.25 4.815 13.8375 5.4975 13.2525C5.79 12.9975 6.21 12.9975 6.5025 13.2525C7.185 13.8375 8.0475 14.25 9 14.25C9.9525 14.25 10.815 13.8375 11.4975 13.2525C11.79 12.9975 12.21 12.9975 12.5025 13.2525C13.185 13.8375 14.0475 14.25 15 14.25H15.0375L16.4625 9.24C16.545 8.9625 16.4925 8.445 15.9675 8.28L15 7.965V4.5C15 3.675 14.325 3 13.5 3H11.25V1.5C11.25 1.0875 10.9125 0.75 10.5 0.75H7.5C7.0875 0.75 6.75 1.0875 6.75 1.5V3H4.5C3.675 3 3 3.675 3 4.5V7.965L2.0325 8.28C1.56 8.4225 1.425 8.91 1.5375 9.24L2.9625 14.25ZM4.5 4.5H13.5V7.4775L9.465 6.15C9.1575 6.0525 8.835 6.0525 8.5275 6.15L4.5 7.4775V4.5Z" fill="currentColor"/>
</svg>
