<svg width="20" height="20" viewBox="0 0 20 20" fill="none" xmlns="http://www.w3.org/2000/svg">
<path d="M3.33331 9.79811C3.33331 8.52908 3.33331 7.89456 3.5947 7.33682C3.8561 6.77908 4.34699 6.36614 5.32879 5.54027L6.28117 4.73914C8.05576 3.24638 8.94305 2.5 9.99998 2.5C11.0569 2.5 11.9442 3.24638 13.7188 4.73914L14.6712 5.54027C15.653 6.36614 16.1439 6.77908 16.4053 7.33682C16.6666 7.89456 16.6666 8.52908 16.6666 9.79811V13.7614C16.6666 15.5238 16.6666 16.405 16.1088 16.9525C15.5509 17.5 14.6529 17.5 12.8571 17.5H7.14284C5.34701 17.5 4.4491 17.5 3.8912 16.9525C3.33331 16.405 3.33331 15.5238 3.33331 13.7614V9.79811Z" stroke="currentColor" stroke-width="2"/>
<path d="M12.5 16.5V11.5C12.5 10.9477 12.0523 10.5 11.5 10.5H8.5C7.94772 10.5 7.5 10.9477 7.5 11.5V16.5" stroke="currentColor" stroke-width="2" stroke-linecap="round" stroke-linejoin="round"/>
</svg>
