<svg width="19" height="19" viewBox="0 0 19 19" fill="none" xmlns="http://www.w3.org/2000/svg">
<g clip-path="url(#clip0_26_846)">
<path d="M17.5565 11.2214V18.4392H12.1432V16.9956H7.45161V18.4392H2.39917V11.2214H17.5565ZM14.2901 9.90599C14.0829 9.00052 13.6156 8.2044 12.879 7.59594C12.1655 7.003 11.3214 6.89077 10.3423 6.52988H10.3387V4.24617L10.5278 4.19529L10.9418 4.04191C11.1009 3.98814 11.2449 3.94303 11.395 3.91127C11.5423 3.87626 11.6444 3.86147 11.7144 3.86147C11.8505 3.86147 12.0226 3.88312 12.224 3.92715C12.429 3.97695 12.6473 4.03072 12.8693 4.09171C13.1006 4.16173 13.307 4.21478 13.5073 4.25989C13.6982 4.30355 13.8581 4.3216 13.9906 4.3216C14.2013 4.32196 14.3085 4.29273 14.6694 4.22849V1.61493C14.3085 1.70083 14.2446 1.7481 13.9902 1.7481C13.8577 1.7481 13.6939 1.72789 13.5026 1.67953C13.3031 1.64128 13.0974 1.58173 12.866 1.51461C12.6598 1.45268 12.4511 1.39899 12.2406 1.35365C12.0446 1.3071 11.9172 1.28472 11.7787 1.28472C11.3193 1.28472 10.6996 1.39335 10.3387 1.59364V1.11655H9.61694V6.52988H9.59421C8.62269 6.89077 7.77208 7.02357 7.05933 7.61651C6.33683 8.22569 5.86767 8.97021 5.64572 9.87604C5.64572 9.87604 4.9539 9.77788 4.9539 10.4997H15.048C15.048 9.77788 14.2901 9.90599 14.2901 9.90599Z" fill="currentColor"/>
</g>
<defs>
<clipPath id="clip0_26_846">
<rect width="18.0444" height="18.0444" fill="white" transform="translate(0.955566 0.755646)"/>
</clipPath>
</defs>
</svg>
