<svg width="20" height="20" viewBox="0 0 20 20" fill="none" xmlns="http://www.w3.org/2000/svg">
<path d="M1.66669 9.99992L0.885818 9.37522L0.386062 9.99992L0.885818 10.6246L1.66669 9.99992ZM9.16669 10.9999C9.71897 10.9999 10.1667 10.5522 10.1667 9.99992C10.1667 9.44763 9.71897 8.99992 9.16669 8.99992V10.9999ZM4.21915 5.20856L0.885818 9.37522L2.44756 10.6246L5.78089 6.45795L4.21915 5.20856ZM0.885818 10.6246L4.21915 14.7913L5.78089 13.5419L2.44756 9.37522L0.885818 10.6246ZM1.66669 10.9999H9.16669V8.99992H1.66669V10.9999Z" fill="currentColor"/>
<path d="M8.33331 6.77669V6.61406C8.33331 5.1012 8.33331 4.34477 8.75097 3.80447C8.78747 3.75726 8.82606 3.71171 8.86663 3.66795C9.3309 3.16715 10.077 3.04279 11.5693 2.79408V2.79408C14.5988 2.28917 16.1135 2.03672 17.143 2.81546C17.2312 2.88215 17.3156 2.95366 17.3959 3.02967C18.3333 3.91721 18.3333 5.45282 18.3333 8.52404V11.4761C18.3333 14.5473 18.3333 16.083 17.3959 16.9705C17.3156 17.0465 17.2312 17.118 17.143 17.1847C16.1135 17.9634 14.5982 17.7109 11.5678 17.2058V17.2058C10.0772 16.9574 9.33195 16.8332 8.86791 16.3336C8.82645 16.289 8.78704 16.2424 8.74982 16.1942C8.33331 15.6543 8.33331 14.899 8.33331 13.3884V13.3884" stroke="currentColor" stroke-width="2"/>
</svg>
