<svg width="96" height="32" viewBox="0 0 96 32" fill="none" xmlns="http://www.w3.org/2000/svg">
<g id="Eko-Mile Logo_Eko-Mile-White" clip-path="url(#clip0_2259_15556)">
<path id="Vector" d="M4.22314 17.589V18.6566H12.1084V21.449H4.22314V22.5166H12.1084V25.8022H-0.0449219V14.3047H12.1084V17.589H4.22314Z" fill="currentColor"/>
<path id="Vector_2" d="M22.0277 20.0359L27.4097 25.8009H22.3218L19.0238 22.0885L16.7045 23.7782V25.7984H12.7656V12.6562H16.707V19.4601L21.338 15.9455H27.4097L22.0277 20.0359Z" fill="currentColor"/>
<path id="Vector_3" d="M25.7715 20.8768C25.7715 17.2308 28.2835 15.7852 32.4727 15.7852C36.6619 15.7852 39.1752 17.2308 39.1752 20.8768C39.1752 24.5228 36.6619 25.9684 32.474 25.9684C28.286 25.9684 25.7715 24.5228 25.7715 20.8768ZM35.2313 20.8768C35.2313 19.4312 34.23 19.0694 32.4777 19.0694C30.7254 19.0694 29.7179 19.4312 29.7179 20.8768C29.7179 22.3224 30.7192 22.6829 32.4777 22.6829C34.2363 22.6829 35.2313 22.3224 35.2313 20.8768Z" fill="currentColor"/>
<path id="Vector_4" d="M72.9016 25.8022H68.631V20.3325L65.4945 25.8022H62.7071L59.5692 20.3325V25.8022H55.2949V14.3047H60.5518L64.0989 20.8745L67.6472 14.3047H72.9041L72.9016 25.8022Z" fill="currentColor"/>
<path id="Vector_5" d="M77.5 12.6641V15.2925H73.5586V12.6641H77.5ZM77.5 15.9483V25.8037H73.5586V15.9483H77.5Z" fill="currentColor"/>
<path id="Vector_6" d="M82.0976 12.6641V25.8062H78.1562V12.6641H82.0976Z" fill="currentColor"/>
<path id="Vector_7" d="M91.9377 22.1084H95.7977C95.3046 24.7205 93.1856 25.9684 89.1291 25.9684C85.269 25.9684 82.5918 24.5228 82.5918 20.8768C82.5918 17.2308 85.269 15.7852 89.293 15.7852C93.3496 15.7852 95.9617 17.2308 95.9617 21.5339H86.6133C86.9412 22.5853 88.0426 22.8481 89.1266 22.8481C90.5572 22.8481 91.1329 22.7492 91.9377 22.1084ZM86.796 19.5626H91.7562C91.3132 18.6764 90.3281 18.5775 89.2768 18.5775C88.2254 18.5775 87.2391 18.6764 86.796 19.5626Z" fill="currentColor"/>
<path id="Vector_8" d="M54.0702 30.6194C52.7022 25.2136 51.3166 19.8128 49.9749 14.4008C49.5231 12.5722 49.0036 10.7385 49.3491 8.80727C49.5894 7.45926 49.7634 6.09874 49.9912 4.74698C50.2477 3.21499 50.5319 1.688 50.8122 0.11595C50.723 0.129803 50.6357 0.153735 50.5519 0.18729C49.0124 1.17107 48.6344 1.39637 48.3903 2.52784H44.7306C44.703 2.38265 44.6742 2.23871 44.6442 2.09478C44.6067 1.91955 44.5453 1.70426 44.4189 1.60288C43.7668 1.0772 43.0884 0.581554 42.3049 -0.0117188C42.3487 0.36377 42.3637 0.572795 42.4 0.77681C42.7467 2.75564 43.1347 4.72695 43.4376 6.71204C43.6967 8.40925 44.1148 10.109 43.688 11.8437C42.186 17.9216 40.684 23.9995 39.1821 30.0775C39.0782 30.5005 38.9668 30.9223 38.8379 31.428C39.8755 31.428 40.7942 31.4079 41.7166 31.4355C42.1397 31.448 42.2974 31.284 42.3575 30.8823C42.4826 29.9949 42.6566 29.1125 42.8168 28.2288C42.9958 27.2413 43.1836 26.255 43.37 25.2562C45.3476 25.2562 47.215 25.2787 49.08 25.2424C49.6257 25.2312 49.8184 25.4264 49.9023 25.9333C50.1689 27.5604 50.4868 29.1876 50.7522 30.8222C50.8273 31.2853 51.0087 31.4568 51.4856 31.438C52.3617 31.4029 53.2379 31.428 54.2805 31.428C54.1954 31.1 54.1303 30.8597 54.0702 30.6194ZM46.9772 4.92095C46.8371 4.91219 46.6944 4.94599 46.5529 4.94599C45.1949 4.94599 45.1323 4.91845 44.9258 3.66056H48.2026C48.1934 3.71981 48.1846 3.77988 48.1763 3.8408C48.0624 4.62807 47.7457 4.96476 46.9772 4.92095ZM46.6105 8.00747C45.5053 8.05754 45.3401 7.81097 45.2863 5.87094H47.777C47.8834 7.59318 47.6656 7.96242 46.6105 8.00747ZM44.2587 19.968C44.7318 17.0267 45.2149 14.0854 45.6705 11.1441C45.7256 10.7006 45.7256 10.252 45.6705 9.80857C45.6004 9.0651 45.8458 8.77472 46.5905 8.80727C47.3352 8.83981 47.4278 9.0676 47.4529 9.81733C47.4974 11.1111 47.6174 12.4013 47.8121 13.6811C48.2126 16.322 48.6882 18.9517 49.1225 21.5864C49.1576 21.7917 49.1651 22.0007 49.1914 22.261H43.892C44.0171 21.4813 44.1373 20.7253 44.2587 19.9706V19.968ZM43.8256 23.2223V23.0971H49.314C49.314 23.1397 49.314 23.1822 49.314 23.2223H43.8256Z" fill="currentColor"/>
</g>
<defs>
<clipPath id="clip0_2259_15556">
<rect width="96" height="31.4159" fill="currentColor"/>
</clipPath>
</defs>
</svg>
