<svg viewBox="0 0 19 19" fill="none" xmlns="http://www.w3.org/2000/svg">
<path d="M9.83202 9.25458L17.2851 5.17101C17.0481 4.38762 16.5673 3.70118 15.9133 3.21245C15.2593 2.72372 14.4666 2.45845 13.6515 2.45557H6.01257C5.19745 2.45845 4.40472 2.72372 3.75073 3.21245C3.09674 3.70118 2.61594 4.38762 2.37891 5.17101L9.83202 9.25458Z" fill="currentColor"/>
<path d="M10.1982 10.8023C10.0859 10.8637 9.96009 10.8959 9.83225 10.8959C9.7044 10.8959 9.5786 10.8637 9.46635 10.8023L2.19336 6.81738V12.4306C2.19455 13.4477 2.59734 14.4229 3.31337 15.1421C4.02939 15.8614 5.00019 16.266 6.0128 16.2672H13.6517C14.6643 16.266 15.6351 15.8614 16.3511 15.1421C17.0672 14.4229 17.4699 13.4477 17.4711 12.4306V6.81738L10.1982 10.8023Z" fill="currentColor"/>
</svg>
