<svg viewBox="0 0 20 20" fill="none" xmlns="http://www.w3.org/2000/svg">
<g clip-path="url(#clip0_3194_1619)">
<path d="M15.0156 17.2715H5.08065C4.50916 17.2723 3.94314 17.1603 3.415 16.9419C2.88687 16.7236 2.407 16.4032 2.0029 15.9991C1.5988 15.595 1.27839 15.1151 1.06005 14.587C0.841704 14.0589 0.729706 13.4928 0.730473 12.9213V6.71346C0.729706 6.14197 0.841704 5.57595 1.06005 5.04781C1.27839 4.51968 1.5988 4.03982 2.0029 3.63571C2.407 3.23161 2.88687 2.91121 3.415 2.69286C3.94314 2.47452 4.50916 2.36252 5.08065 2.36329H15.0156C15.5871 2.36252 16.1531 2.47452 16.6812 2.69286C17.2094 2.91121 17.6892 3.23161 18.0933 3.63571C18.4974 4.03982 18.8178 4.51968 19.0362 5.04781C19.2545 5.57595 19.3665 6.14197 19.3658 6.71346V12.9213C19.3665 13.4928 19.2545 14.0589 19.0362 14.587C18.8178 15.1151 18.4974 15.595 18.0933 15.9991C17.6892 16.4032 17.2094 16.7236 16.6812 16.9419C16.1531 17.1603 15.5871 17.2723 15.0156 17.2715ZM5.08065 3.6037C4.25743 3.6037 3.46793 3.93072 2.88583 4.51282C2.30373 5.09492 1.97671 5.88442 1.97671 6.70764V12.9213C1.97671 13.7446 2.30373 14.5341 2.88583 15.1162C3.46793 15.6983 4.25743 16.0253 5.08065 16.0253H15.0156C15.8388 16.0253 16.6283 15.6983 17.2104 15.1162C17.7925 14.5341 18.1195 13.7446 18.1195 12.9213V6.71346C18.1195 5.89025 17.7925 5.10075 17.2104 4.51864C16.6283 3.93654 15.8388 3.60952 15.0156 3.60952L5.08065 3.6037Z" fill="currentColor"/>
<path d="M10.0486 9.54991C8.88623 9.54829 7.7436 9.2496 6.72916 8.6822L4.15516 7.25544C4.06969 7.2261 3.99163 7.17852 3.92638 7.116C3.86114 7.05348 3.81027 6.97752 3.77731 6.89339C3.74435 6.80925 3.73008 6.71895 3.73549 6.62875C3.74091 6.53855 3.76588 6.45061 3.80867 6.37102C3.85146 6.29143 3.91104 6.2221 3.9833 6.16784C4.05555 6.11357 4.13875 6.07567 4.22711 6.05676C4.31547 6.03785 4.40689 6.03839 4.49502 6.05834C4.58316 6.07828 4.6659 6.11715 4.73751 6.17226L7.31151 7.60485C8.14067 8.06901 9.07503 8.31275 10.0253 8.31275C10.9755 8.31275 11.9099 8.06901 12.739 7.60485L15.313 6.17226C15.3847 6.11715 15.4674 6.07828 15.5555 6.05834C15.6437 6.03839 15.7351 6.03785 15.8234 6.05676C15.9118 6.07567 15.995 6.11357 16.0672 6.16784C16.1395 6.2221 16.1991 6.29143 16.2419 6.37102C16.2847 6.45061 16.3096 6.53855 16.3151 6.62875C16.3205 6.71895 16.3062 6.80925 16.2732 6.89339C16.2403 6.97752 16.1894 7.05348 16.1242 7.116C16.0589 7.17852 15.9809 7.2261 15.8954 7.25544L13.368 8.6822C12.3535 9.2496 11.2109 9.54829 10.0486 9.54991Z" fill="currentColor"/>
</g>
<defs>
<clipPath id="clip0_3194_1619">
<rect width="18.6353" height="18.6353" fill="white" transform="translate(0.730469 0.5)"/>
</clipPath>
</defs>
</svg>
