<svg viewBox="0 0 19 20" fill="none" xmlns="http://www.w3.org/2000/svg">
<path d="M16.6965 13.2909L16.0132 12.6024C15.7564 12.3466 15.5528 12.0425 15.4141 11.7075C15.2755 11.3725 15.2047 11.0134 15.2057 10.6509V8.16104C15.2057 7.50845 15.0772 6.86224 14.8274 6.25933C14.5777 5.65641 14.2116 5.10859 13.7502 4.64713C13.2887 4.18568 12.7409 3.81964 12.138 3.5699C11.5351 3.32016 10.8889 3.19163 10.2363 3.19163V1.53516H9.12852V3.19163C7.81055 3.19163 6.54656 3.71519 5.61461 4.64713C4.68267 5.57908 4.15911 6.84307 4.15911 8.16104V10.6561C4.16011 11.0186 4.08926 11.3777 3.95066 11.7127C3.81205 12.0476 3.60843 12.3518 3.35158 12.6076L2.66828 13.2909C2.61735 13.3419 2.57696 13.4025 2.54942 13.4691C2.52189 13.5357 2.50775 13.6071 2.50781 13.6792V15.3356C2.50781 15.4816 2.56545 15.6217 2.66821 15.7255C2.77096 15.8292 2.91052 15.8881 3.05652 15.8895H7.22358C7.28607 16.4975 7.5718 17.0606 8.02551 17.4701C8.47922 17.8796 9.06866 18.1062 9.67981 18.1062C10.291 18.1062 10.8804 17.8796 11.3341 17.4701C11.7878 17.0606 12.0736 16.4975 12.136 15.8895H16.3083C16.4552 15.8895 16.5961 15.8312 16.6999 15.7273C16.8038 15.6234 16.8622 15.4825 16.8622 15.3356V13.6792C16.8604 13.533 16.8008 13.3934 16.6965 13.2909ZM9.6824 16.9973C9.3648 16.9967 9.05709 16.8868 8.81103 16.686C8.56497 16.4851 8.39558 16.2057 8.33134 15.8947H11.0386C10.9742 16.2066 10.8041 16.4867 10.5569 16.6876C10.3098 16.8885 10.0009 16.9979 9.6824 16.9973ZM15.7544 14.7869H3.6104V13.9121L4.12805 13.3944C4.48833 13.0365 4.77404 12.6106 4.96863 12.1414C5.16322 11.6723 5.26283 11.1692 5.26169 10.6613V8.16104C5.26509 7.13628 5.67243 6.15419 6.39534 5.42786C6.75334 5.06758 7.17923 4.78187 7.64838 4.58728C8.11753 4.39269 8.62062 4.29308 9.12852 4.29421H10.2311C11.2567 4.29421 12.2402 4.70161 12.9654 5.42678C13.6905 6.15195 14.0979 7.13549 14.0979 8.16104V10.6561C14.0968 11.164 14.1964 11.6671 14.391 12.1362C14.5856 12.6054 14.8713 13.0313 15.2316 13.3893L15.7492 13.9069L15.7544 14.7869Z" fill="currentColor"/>
</svg>
