<svg width="23" height="20" viewBox="0 0 23 20" fill="none" xmlns="http://www.w3.org/2000/svg">
<path d="M3.45 8.85019C4.71859 8.85019 5.75 7.81879 5.75 6.55019C5.75 5.2816 4.71859 4.2502 3.45 4.2502C2.18141 4.2502 1.15 5.2816 1.15 6.55019C1.15 7.81879 2.18141 8.85019 3.45 8.85019ZM19.55 8.85019C20.8186 8.85019 21.85 7.81879 21.85 6.55019C21.85 5.2816 20.8186 4.2502 19.55 4.2502C18.2814 4.2502 17.25 5.2816 17.25 6.55019C17.25 7.81879 18.2814 8.85019 19.55 8.85019ZM20.7 10.0002H18.4C17.7675 10.0002 17.1961 10.2554 16.7792 10.6686C18.2275 11.4629 19.2553 12.8968 19.4781 14.6002H21.85C22.4861 14.6002 23 14.0863 23 13.4502V12.3002C23 11.0316 21.9686 10.0002 20.7 10.0002ZM11.5 10.0002C13.7245 10.0002 15.525 8.19973 15.525 5.97519C15.525 3.75066 13.7245 1.9502 11.5 1.9502C9.27547 1.9502 7.475 3.75066 7.475 5.97519C7.475 8.19973 9.27547 10.0002 11.5 10.0002ZM14.26 11.1502H13.9617C13.2142 11.5096 12.3841 11.7252 11.5 11.7252C10.6159 11.7252 9.78937 11.5096 9.03828 11.1502H8.74C6.45437 11.1502 4.6 13.0046 4.6 15.2902V16.3252C4.6 17.2775 5.37266 18.0502 6.325 18.0502H16.675C17.6273 18.0502 18.4 17.2775 18.4 16.3252V15.2902C18.4 13.0046 16.5456 11.1502 14.26 11.1502ZM6.22078 10.6686C5.80391 10.2554 5.2325 10.0002 4.6 10.0002H2.3C1.03141 10.0002 0 11.0316 0 12.3002V13.4502C0 14.0863 0.513906 14.6002 1.15 14.6002H3.51828C3.74469 12.8968 4.7725 11.4629 6.22078 10.6686Z" fill="currentColor"/>
</svg>
