<svg width="21" height="21" viewBox="0 0 21 21" fill="none" xmlns="http://www.w3.org/2000/svg">
<path d="M12.25 6.125H8.75C7.7875 6.125 7 6.9125 7 7.875V12.25C7 12.7312 7.39375 13.125 7.875 13.125H8.75V18.375C8.75 18.8562 9.14375 19.25 9.625 19.25H11.375C11.8562 19.25 12.25 18.8562 12.25 18.375V13.125H13.125C13.6062 13.125 14 12.7312 14 12.25V7.875C14 6.9125 13.2125 6.125 12.25 6.125Z" fill="currentColor"/>
<path d="M10.5 5.25C11.4665 5.25 12.25 4.4665 12.25 3.5C12.25 2.5335 11.4665 1.75 10.5 1.75C9.5335 1.75 8.75 2.5335 8.75 3.5C8.75 4.4665 9.5335 5.25 10.5 5.25Z" fill="currentColor"/>
</svg>
