<svg viewBox="0 0 19 20" fill="none" xmlns="http://www.w3.org/2000/svg">
<path d="M15.6041 13.2364L13.7483 11.934C13.5056 11.764 13.2219 11.6744 12.9278 11.6744C12.46 11.6744 12.021 11.9048 11.7535 12.2903L11.3227 12.9105C10.6007 12.4241 9.79506 11.7449 9.02702 10.9736C8.25912 10.2022 7.58312 9.39294 7.09902 8.66769L7.71614 8.23495C8.03071 8.01493 8.2408 7.68532 8.30752 7.30709C8.3741 6.92915 8.29017 6.54727 8.07085 6.23115L6.77452 4.367C6.50344 3.97754 6.06606 3.74487 5.60435 3.74487C5.44433 3.74487 5.28739 3.77325 5.13801 3.82861C4.96835 3.89155 4.81029 3.96883 4.65531 4.06662L4.39907 4.24786C4.335 4.29788 4.27542 4.35267 4.21835 4.41C3.90574 4.72387 3.6839 5.1212 3.55871 5.59103C3.02454 7.60242 4.34787 10.6439 6.85159 13.1589C8.95415 15.2709 11.4801 16.5829 13.4435 16.5831H13.4436C13.7799 16.5831 14.0968 16.5438 14.3858 16.4662C14.8535 16.3406 15.2491 16.1178 15.5619 15.8036C15.6186 15.7466 15.6729 15.6867 15.7311 15.6112L15.9117 15.3524C15.9999 15.2107 16.0767 15.052 16.1402 14.8803C16.3586 14.2874 16.1381 13.6113 15.6041 13.2364Z" fill="currentColor"/>
</svg>
