<svg width="49" height="49" viewBox="0 0 49 49" fill="none" xmlns="http://www.w3.org/2000/svg">
<path d="M20.5059 10.1699H6.50586C5.40129 10.1699 4.50586 11.0653 4.50586 12.1699V38.1699C4.50586 39.2745 5.40129 40.1699 6.50586 40.1699H42.5059C43.6105 40.1699 44.5059 39.2745 44.5059 38.1699V35.6699" stroke="black" stroke-width="2" stroke-linecap="round" stroke-linejoin="round"/>
<path d="M10.5059 23.1699H18.5059" stroke="black" stroke-width="2" stroke-linecap="round"/>
<path d="M10.5059 31.1699H34.5059" stroke="black" stroke-width="2" stroke-linecap="round"/>
<path d="M34.5059 22.1699C37.8196 22.1699 40.5059 19.4836 40.5059 16.1699C40.5059 12.8562 37.8196 10.1699 34.5059 10.1699C31.1922 10.1699 28.5059 12.8562 28.5059 16.1699C28.5059 19.4836 31.1922 22.1699 34.5059 22.1699Z" fill="#2F88FF" stroke="black" stroke-width="2" stroke-linecap="round" stroke-linejoin="round"/>
<path d="M44.5059 28.5886C42.5527 24.7722 38.5058 22.1699 34.5058 22.1699C30.5058 22.1699 28.513 23.3028 26.4561 25.1699" stroke="black" stroke-width="2" stroke-linecap="round" stroke-linejoin="round"/>
</svg>
