<svg width="22" height="21" viewBox="0 0 22 21" fill="none" xmlns="http://www.w3.org/2000/svg">
<path d="M13.4664 17.4649H6.43384C5.27158 17.4649 4.32677 16.5201 4.32677 15.3578C4.32677 14.1956 5.27158 13.2508 6.43384 13.2508H12.3336C13.9603 13.2508 15.2835 11.9275 15.2835 10.3009C15.2835 8.67419 13.9603 7.35095 12.3336 7.35095H8.23665C7.92713 7.95769 7.54383 8.52386 7.09546 9.03661H12.3336C13.0307 9.03661 13.5979 9.60383 13.5979 10.3009C13.5979 10.9979 13.0307 11.5651 12.3336 11.5651H6.43384C4.34278 11.5651 2.64111 13.2668 2.64111 15.3578C2.64111 17.4489 4.34278 19.1506 6.43384 19.1506H14.5191C14.1055 18.6303 13.7524 18.0648 13.4664 17.4649ZM5.1696 2.29398C3.77556 2.29398 2.64111 3.42842 2.64111 4.82246C2.64111 7.5094 5.1696 9.03661 5.1696 9.03661C5.1696 9.03661 7.69809 7.50856 7.69809 4.82246C7.69809 3.42842 6.56364 2.29398 5.1696 2.29398ZM5.1696 6.08671C5.00352 6.08665 4.83908 6.05388 4.68567 5.99028C4.53225 5.92667 4.39287 5.83347 4.27547 5.716C4.15807 5.59852 4.06497 5.45908 4.00146 5.30562C3.93796 5.15216 3.9053 4.9877 3.90536 4.82162C3.90541 4.65554 3.93818 4.4911 4.00178 4.33769C4.06539 4.18427 4.15859 4.04489 4.27607 3.92749C4.39354 3.81009 4.53299 3.71699 4.68644 3.65348C4.8399 3.58998 5.00436 3.55732 5.17044 3.55738C5.50585 3.55749 5.82748 3.69084 6.06457 3.92809C6.30166 4.16534 6.4348 4.48705 6.43469 4.82246C6.43457 5.15787 6.30123 5.4795 6.06398 5.71659C5.82673 5.95368 5.50501 6.08682 5.1696 6.08671Z" fill="currentColor"/>
<path d="M16.9694 12.408C15.5754 12.408 14.4409 13.5424 14.4409 14.9364C14.4409 17.6234 16.9694 19.1506 16.9694 19.1506C16.9694 19.1506 19.4979 17.6225 19.4979 14.9364C19.4979 13.5424 18.3634 12.408 16.9694 12.408ZM16.9694 16.2007C16.8033 16.2006 16.6389 16.1679 16.4855 16.1043C16.3321 16.0407 16.1927 15.9475 16.0753 15.83C15.9579 15.7125 15.8648 15.5731 15.8013 15.4196C15.7378 15.2661 15.7051 15.1017 15.7052 14.9356C15.7052 14.7695 15.738 14.6051 15.8016 14.4517C15.8652 14.2983 15.9584 14.1589 16.0759 14.0415C16.1933 13.9241 16.3328 13.831 16.4863 13.7675C16.6397 13.704 16.8042 13.6713 16.9702 13.6714C17.3057 13.6715 17.6273 13.8048 17.8644 14.0421C18.1015 14.2793 18.2346 14.601 18.2345 14.9364C18.2344 15.2719 18.101 15.5935 17.8638 15.8306C17.6265 16.0677 17.3048 16.2008 16.9694 16.2007Z" fill="currentColor"/>
</svg>
