<svg width="24" height="24" viewBox="0 0 24 24" fill="none" xmlns="http://www.w3.org/2000/svg">
<path d="M19.6792 3.48291L18.239 2.04263L16.7987 3.48291L15.3584 2.04263L13.9181 3.48291L12.4778 2.04263L11.0376 3.48291L9.59729 2.04263L8.15701 3.48291L6.71674 2.04263V15.4852H3.83618V18.3658C3.83618 19.9597 5.12283 21.2463 6.71674 21.2463H18.239C19.8329 21.2463 21.1195 19.9597 21.1195 18.3658V2.04263L19.6792 3.48291ZM19.1991 18.3658C19.1991 18.8939 18.7671 19.326 18.239 19.326C17.7109 19.326 17.2788 18.8939 17.2788 18.3658V15.4852H8.63711V4.92319H19.1991V18.3658Z" fill="currentColor"/>
<path d="M9.59717 6.84358H15.3583V8.76395H9.59717V6.84358ZM16.3185 6.84358H18.2388V8.76395H16.3185V6.84358ZM9.59717 9.72414H15.3583V11.6445H9.59717V9.72414ZM16.3185 9.72414H18.2388V11.6445H16.3185V9.72414Z" fill="currentColor"/>
</svg>
