<svg width="27" height="26" viewBox="0 0 27 26" fill="none" xmlns="http://www.w3.org/2000/svg">
<g clip-path="url(#clip0_2001_13491)">
<path d="M26.3264 17.1651L25.9219 16.6595C25.4001 16.0083 24.7206 15.531 23.9602 15.256C23.944 15.2155 23.9238 15.1751 23.8955 15.1427L23.0744 14.1154C22.6053 13.533 22.3221 12.8251 22.2655 12.0728L22.043 9.33051H23.1796C23.4021 9.33051 23.5841 9.1485 23.5841 8.92604V6.49922C23.5841 6.27676 23.4021 6.09475 23.1796 6.09475H19.9438C19.5353 6.09475 19.1713 6.2525 18.8841 6.49922H17.9215C17.2541 6.49922 16.7081 7.04526 16.7081 7.71263C16.7081 8.38001 17.2541 8.92604 17.9215 8.92604H18.8841C19.0702 9.08783 19.2926 9.20917 19.5394 9.27388V13.2498C19.5394 14.0062 19.2441 14.714 18.7102 15.2479L16.5382 17.4199H11.8504V15.4946C11.8504 14.4956 12.2387 13.5572 12.9465 12.8494C13.0234 12.7725 13.0517 12.6674 13.0638 12.5622V11.3488C13.0638 10.6814 12.5178 10.1354 11.8504 10.1354H9.42359V4.47283C9.42359 4.25037 9.24157 4.06836 9.01912 4.06836H0.933767C0.711308 4.06836 0.529297 4.25037 0.529297 4.47283V10.5399C0.529297 10.7623 0.711308 10.9443 0.933767 10.9443H1.74271V12.1578C1.74271 12.267 1.7872 12.3681 1.86 12.4449L2.72152 13.3064C1.72653 14.0345 0.998482 15.0861 0.691085 16.3238C0.585923 16.7485 0.529297 17.1853 0.529297 17.6262V19.4423C0.529297 19.6647 0.711308 19.8467 0.933767 19.8467H2.79837C3.28778 21.0642 4.44861 21.8691 5.7874 21.8691C7.1262 21.8691 8.28703 21.0642 8.77643 19.8467H16.9993C17.4442 19.8467 17.8568 19.6688 18.1682 19.3492L19.1511 18.3219C19.143 18.423 19.1349 18.5282 19.1349 18.6293C19.1349 20.413 20.5869 21.865 22.3707 21.865C24.1544 21.865 25.6064 20.413 25.6064 18.6293C25.6064 18.3502 25.57 18.0832 25.5013 17.8203H26.0109C26.1646 17.8203 26.3062 17.7313 26.3749 17.5898C26.4437 17.4482 26.4234 17.2824 26.3264 17.161V17.1651ZM25.1615 17.0114H20.4049L21.4485 15.9234C21.5253 15.8425 21.6305 15.798 21.7397 15.798H22.4435C23.487 15.798 24.4658 16.2389 25.1575 17.0114H25.1615ZM23.1796 18.6293C23.1796 19.0742 22.8156 19.4382 22.3707 19.4382C21.9257 19.4382 21.5617 19.0742 21.5617 18.6293C21.5617 18.1844 21.9257 17.8203 22.3707 17.8203C22.8156 17.8203 23.1796 18.1844 23.1796 18.6293ZM22.7751 8.51753H21.9662V6.89965H22.7751V8.51753ZM21.1573 6.89965V8.51753H19.9438C19.7942 8.51753 19.6607 8.47303 19.5394 8.40427V7.0129C19.6607 6.94414 19.7942 6.89965 19.9438 6.89965H21.1573ZM17.517 7.70859C17.517 7.48613 17.699 7.30412 17.9215 7.30412H18.3826C18.3502 7.43355 18.326 7.56702 18.326 7.70859C18.326 7.85015 18.3502 7.98363 18.3826 8.11306H17.9215C17.699 8.11306 17.517 7.93105 17.517 7.70859ZM12.2589 11.3488V12.1578H5.7874V11.3488C5.7874 11.1264 5.96941 10.9443 6.19187 10.9443H11.8544C12.0769 10.9443 12.2589 11.1264 12.2589 11.3488ZM5.7874 4.8773V6.09071H4.16952V4.8773H5.7874ZM1.33824 4.8773H3.36058V6.49518C3.36058 6.71764 3.5426 6.89965 3.76505 6.89965H6.19187C6.41433 6.89965 6.59634 6.71764 6.59634 6.49518V4.8773H8.61869V10.1354H1.33824V4.8773ZM2.55165 11.9919V10.9443H5.05127C5.00678 11.0697 4.97846 11.2072 4.97846 11.3488V12.271L4.19784 12.5299C3.92684 12.6188 3.67203 12.7361 3.4253 12.8656L2.55165 11.9919ZM8.61869 19.0337H2.95612V18.6293C2.95612 17.068 4.22615 15.798 5.7874 15.798C7.34866 15.798 8.61869 17.068 8.61869 18.6293V19.0337ZM5.7874 21.0561C4.89757 21.0561 4.11694 20.5829 3.69225 19.8427H7.88256C7.45786 20.5829 6.67724 21.0561 5.7874 21.0561ZM17.5858 18.783C17.4321 18.9448 17.2218 19.0337 16.9993 19.0337H9.42763V18.6293C9.42763 16.6231 7.79357 14.989 5.7874 14.989C3.78123 14.989 2.14718 16.6231 2.14718 18.6293V19.0337H1.33824V17.6221C1.33824 17.25 1.38273 16.8779 1.47576 16.5179C1.85596 14.9971 2.96825 13.7959 4.4567 13.2984L5.45169 12.9667H11.814C11.3165 13.7069 11.0496 14.5805 11.0496 15.4906V17.8203C11.0496 18.0428 11.2316 18.2248 11.454 18.2248H16.7121C16.8213 18.2248 16.9225 18.1803 16.9993 18.1075L19.2886 15.8182C19.9762 15.1306 20.3524 14.2165 20.3524 13.2458V9.32647H21.2381L21.4646 12.1335C21.5375 13.0476 21.8772 13.9091 22.4516 14.621L22.763 15.0093C22.6619 15.0012 22.5608 14.9931 22.4556 14.9931H21.7518C21.4242 14.9931 21.1047 15.1306 20.8782 15.3652L19.1754 17.1368L17.5939 18.787L17.5858 18.783ZM24.7975 18.6293C24.7975 19.9681 23.7095 21.0561 22.3707 21.0561C21.0319 21.0561 19.9438 19.9681 19.9438 18.6293C19.9438 18.3461 19.9924 18.0751 20.0854 17.8203H20.9793C20.8418 18.059 20.7528 18.334 20.7528 18.6293C20.7528 19.5231 21.4768 20.2471 22.3707 20.2471C23.2645 20.2471 23.9885 19.5231 23.9885 18.6293C23.9885 18.334 23.9036 18.059 23.762 17.8203H24.6559C24.7489 18.0751 24.7975 18.3461 24.7975 18.6293Z" fill="currentColor"/>
</g>
<defs>
<clipPath id="clip0_2001_13491">
<rect width="25.8861" height="25.8861" fill="white" transform="translate(0.529297 0.0234375)"/>
</clipPath>
</defs>
</svg>
