<svg width="22" height="21" viewBox="0 0 22 21" fill="none" xmlns="http://www.w3.org/2000/svg">
<path d="M12.6498 19.2618H9.48916C9.27845 19.2618 9.09584 19.1915 8.94132 19.0511C8.7868 18.9106 8.69549 18.735 8.6674 18.5243L8.41455 16.5647C8.23194 16.4945 8.05972 16.4102 7.8979 16.3119C7.73608 16.2135 7.57819 16.1082 7.42423 15.9958L5.59108 16.7543C5.39442 16.8246 5.19776 16.8316 5.0011 16.7754C4.80444 16.7192 4.64992 16.5998 4.53754 16.4172L2.97831 13.6991C2.86593 13.5165 2.83081 13.3198 2.87295 13.1091C2.91509 12.8984 3.02045 12.7298 3.18901 12.6034L4.76932 11.4024C4.75527 11.3041 4.74825 11.2091 4.74825 11.1175V10.5494C4.74825 10.4578 4.75527 10.3629 4.76932 10.2646L3.18901 9.06353C3.02045 8.93711 2.91509 8.76854 2.87295 8.55783C2.83081 8.34713 2.86593 8.15047 2.97831 7.96785L4.53754 5.24973C4.63587 5.05307 4.78674 4.93002 4.99014 4.88057C5.19354 4.83112 5.39385 4.8418 5.59108 4.9126L7.42423 5.67114C7.57875 5.55877 7.74029 5.45341 7.90885 5.35508C8.07742 5.25675 8.24599 5.17247 8.41455 5.10223L8.6674 3.14266C8.69549 2.93195 8.7868 2.75636 8.94132 2.61589C9.09584 2.47542 9.27845 2.40518 9.48916 2.40518H12.6498C12.8605 2.40518 13.0431 2.47542 13.1976 2.61589C13.3521 2.75636 13.4434 2.93195 13.4715 3.14266L13.7244 5.10223C13.907 5.17247 14.0792 5.25675 14.241 5.35508C14.4029 5.45341 14.5607 5.55877 14.7147 5.67114L16.5479 4.9126C16.7445 4.84236 16.9412 4.83534 17.1378 4.89153C17.3345 4.94772 17.489 5.06712 17.6014 5.24973L19.1606 7.96785C19.273 8.15047 19.3081 8.34713 19.266 8.55783C19.2238 8.76854 19.1185 8.93711 18.9499 9.06353L17.3696 10.2646C17.3837 10.3629 17.3907 10.4578 17.3907 10.5494V11.1175C17.3907 11.2091 17.3766 11.3041 17.3485 11.4024L18.9288 12.6034C19.0974 12.7298 19.2028 12.8984 19.2449 13.1091C19.287 13.3198 19.2519 13.5165 19.1396 13.6991L17.5803 16.3961C17.4679 16.5788 17.3098 16.7018 17.1058 16.7653C16.9018 16.8288 16.7018 16.8251 16.5057 16.7543L14.7147 15.9958C14.5602 16.1082 14.3986 16.2135 14.2301 16.3119C14.0615 16.4102 13.8929 16.4945 13.7244 16.5647L13.4715 18.5243C13.4434 18.735 13.3521 18.9106 13.1976 19.0511C13.0431 19.1915 12.8605 19.2618 12.6498 19.2618ZM11.1116 13.7834C11.9263 13.7834 12.6217 13.4954 13.1976 12.9195C13.7735 12.3435 14.0615 11.6482 14.0615 10.8335C14.0615 10.0187 13.7735 9.3234 13.1976 8.74747C12.6217 8.17154 11.9263 7.88357 11.1116 7.88357C10.2828 7.88357 9.58384 8.17154 9.01465 8.74747C8.44546 9.3234 8.16114 10.0187 8.1617 10.8335C8.1617 11.6482 8.44602 12.3435 9.01465 12.9195C9.58328 13.4954 10.2823 13.7834 11.1116 13.7834ZM11.1116 12.0977C10.7604 12.0977 10.4618 11.9747 10.2157 11.7286C9.96957 11.4824 9.8468 11.1841 9.84736 10.8335C9.84736 10.4823 9.97041 10.1836 10.2165 9.93754C10.4626 9.69144 10.761 9.56867 11.1116 9.56923C11.4628 9.56923 11.7614 9.69228 12.0075 9.93839C12.2536 10.1845 12.3764 10.4829 12.3758 10.8335C12.3758 11.1846 12.2528 11.4833 12.0067 11.7294C11.7606 11.9755 11.4622 12.0983 11.1116 12.0977ZM10.2266 17.5761H11.8912L12.1862 15.3426C12.6217 15.2302 13.0257 15.065 13.3982 14.847C13.7707 14.629 14.1112 14.3658 14.4197 14.0573L16.5057 14.9212L17.3275 13.4884L15.5154 12.1188C15.5856 11.9221 15.6348 11.7151 15.6629 11.4976C15.691 11.2802 15.705 11.0588 15.705 10.8335C15.705 10.6087 15.691 10.3876 15.6629 10.1702C15.6348 9.95271 15.5856 9.74538 15.5154 9.54816L17.3275 8.17856L16.5057 6.74575L14.4197 7.63072C14.1107 7.30764 13.7702 7.03737 13.3982 6.81992C13.0262 6.60247 12.6222 6.43728 12.1862 6.32434L11.9123 4.09084H10.2477L9.95272 6.32434C9.51725 6.43671 9.11354 6.60191 8.74157 6.81992C8.3696 7.03793 8.02882 7.30117 7.71922 7.60965L5.63322 6.74575L4.81146 8.17856L6.62354 9.52709C6.55331 9.73779 6.50414 9.9485 6.47605 10.1592C6.44795 10.3699 6.4339 10.5947 6.4339 10.8335C6.4339 11.0582 6.44795 11.276 6.47605 11.4867C6.50414 11.6974 6.55331 11.9081 6.62354 12.1188L4.81146 13.4884L5.63322 14.9212L7.71922 14.0362C8.02826 14.3593 8.36904 14.6299 8.74157 14.8479C9.1141 15.0659 9.51782 15.2308 9.95272 15.3426L10.2266 17.5761Z" fill="currentColor"/>
</svg>
