<svg width="19" height="19" viewBox="0 0 19 19" fill="none" xmlns="http://www.w3.org/2000/svg">
<path d="M18.5671 0.408517C18.3933 0.233481 18.1758 0.108116 17.9373 0.0454188C17.6987 -0.0172787 17.4477 -0.0150264 17.2104 0.0519421L1.00793 4.61784C0.737047 4.6969 0.496369 4.85596 0.317448 5.07417C0.138526 5.29238 0.0297105 5.55956 0.00526495 5.84068C-0.0191806 6.1218 0.0418845 6.40376 0.180456 6.64957C0.319027 6.89539 0.528638 7.0936 0.781811 7.21823L8.2351 10.7405L11.7574 18.1938C11.8704 18.4303 12.0479 18.63 12.2695 18.77C12.491 18.91 12.7476 18.9846 13.0097 18.9852H13.1315C13.4148 18.9634 13.6845 18.8549 13.9039 18.6743C14.1233 18.4938 14.2818 18.2501 14.3578 17.9764L18.9237 1.76524C18.9906 1.52785 18.9929 1.27686 18.9302 1.03831C18.8675 0.799751 18.7421 0.582306 18.5671 0.408517ZM13.0184 17.5937L9.59182 10.3665L13.1837 6.77469C13.2535 6.7114 13.3098 6.63459 13.349 6.5489C13.3883 6.46321 13.4097 6.37045 13.412 6.27622C13.4144 6.182 13.3975 6.08829 13.3625 6.00077C13.3275 5.91326 13.2751 5.83377 13.2085 5.76712C13.1418 5.70048 13.0623 5.64807 12.9748 5.61307C12.8873 5.57808 12.7936 5.56123 12.6994 5.56355C12.6052 5.56587 12.5124 5.58731 12.4267 5.62657C12.341 5.66583 12.2642 5.72209 12.2009 5.79193L8.60907 9.38377L1.3819 5.95717L17.5843 1.39127L13.0184 17.5937Z" fill="currentColor"/>
</svg>
