<svg width="24" height="24" viewBox="0 0 24 24" fill="none" xmlns="http://www.w3.org/2000/svg">
<g clip-path="url(#clip0_410_6640)">
<path fill-rule="evenodd" clip-rule="evenodd" d="M10.0001 3C10.0001 2.73478 10.1055 2.48043 10.293 2.29289C10.4805 2.10536 10.7349 2 11.0001 2H13.0001C13.2653 2 13.5197 2.10536 13.7072 2.29289C13.8947 2.48043 14.0001 2.73478 14.0001 3V4.32L17.3291 4.874C17.7959 4.95209 18.2199 5.1932 18.5257 5.55446C18.8314 5.91572 18.9992 6.37371 18.9991 6.847V10.279L21.0591 10.965C21.2232 11.0197 21.3741 11.1079 21.5023 11.224C21.6305 11.34 21.7333 11.4814 21.8041 11.6392C21.8748 11.7971 21.9121 11.9678 21.9135 12.1408C21.9149 12.3137 21.8803 12.4851 21.8121 12.644L19.2911 18.527L20.4471 19.106C20.5687 19.1622 20.6777 19.2422 20.7678 19.3413C20.8579 19.4404 20.9271 19.5566 20.9714 19.683C21.0157 19.8094 21.0342 19.9433 21.0257 20.077C21.0173 20.2107 20.9821 20.3412 20.9222 20.461C20.8623 20.5808 20.7789 20.6874 20.6771 20.7743C20.5752 20.8613 20.457 20.9269 20.3293 20.9673C20.2016 21.0077 20.0671 21.022 19.9337 21.0094C19.8004 20.9968 19.671 20.9576 19.5531 20.894L16.8941 19.565C16.6165 19.4263 16.3104 19.3541 16.0001 19.3541C15.6898 19.3541 15.3837 19.4263 15.1061 19.565L13.7891 20.224C13.2336 20.5018 12.6211 20.6464 12.0001 20.6464C11.3791 20.6464 10.7666 20.5018 10.2111 20.224L8.89409 19.565C8.61636 19.4261 8.31011 19.3538 7.99959 19.3538C7.68908 19.3538 7.38282 19.4261 7.10509 19.565L4.44709 20.895C4.20973 21.0136 3.93498 21.033 3.68331 20.9489C3.43164 20.8649 3.22365 20.6844 3.10509 20.447C2.98654 20.2096 2.96714 19.9349 3.05116 19.6832C3.13517 19.4315 3.31573 19.2236 3.55309 19.105L5.38509 18.189L2.28309 12.761C2.19134 12.6004 2.13636 12.4215 2.12212 12.2371C2.10788 12.0527 2.13473 11.8675 2.20073 11.6947C2.26673 11.522 2.37025 11.366 2.50381 11.2381C2.63737 11.1102 2.79765 11.0135 2.97309 10.955L5.00009 10.279V6.847C5 6.37371 5.16775 5.91572 5.47353 5.55446C5.7793 5.1932 6.20329 4.95209 6.67009 4.874L10.0001 4.32V3ZM7.25009 17.425C8.1117 17.2606 9.00346 17.3839 9.78809 17.776L11.1041 18.435C11.382 18.574 11.6884 18.6464 11.9991 18.6464C12.3098 18.6464 12.6162 18.574 12.8941 18.435L14.2101 17.776C14.7166 17.5228 15.271 17.38 15.8368 17.3571C16.4026 17.3341 16.9668 17.4316 17.4921 17.643L19.6521 12.605L12.0001 10.055L4.47309 12.563L7.25009 17.425ZM17.0001 9.613V6.847L12.0001 6.014L7.00009 6.847V9.613L11.3671 8.157C11.7777 8.02014 12.2215 8.02014 12.6321 8.157L17.0001 9.613Z" fill="currentColor"/>
</g>
<defs>
<clipPath id="clip0_410_6640">
<rect width="24" height="24" fill="white"/>
</clipPath>
</defs>
</svg>
