<svg width="21" height="22" viewBox="0 0 21 22" fill="none" xmlns="http://www.w3.org/2000/svg">
<path d="M17.5 6.625V18.875C17.5 19.1071 17.4078 19.3296 17.2437 19.4937C17.0796 19.6578 16.8571 19.75 16.625 19.75H4.375C4.14294 19.75 3.92038 19.6578 3.75628 19.4937C3.59219 19.3296 3.5 19.1071 3.5 18.875V3.125C3.5 2.89294 3.59219 2.67038 3.75628 2.50628C3.92038 2.34219 4.14294 2.25 4.375 2.25H13.125M17.5 6.625H13.125V2.25M17.5 6.625L13.125 2.25" stroke="currentColor" stroke-width="1.5" stroke-linecap="round" stroke-linejoin="round"/>
<path d="M10.5 12.75C11.4665 12.75 12.25 11.9665 12.25 11C12.25 10.0335 11.4665 9.25 10.5 9.25C9.5335 9.25 8.75 10.0335 8.75 11C8.75 11.9665 9.5335 12.75 10.5 12.75Z" stroke="currentColor" stroke-width="1.5" stroke-linecap="round" stroke-linejoin="round"/>
<path d="M14 16.25C14 15.3217 13.6313 14.4315 12.9749 13.7751C12.3185 13.1187 11.4283 12.75 10.5 12.75C9.57174 12.75 8.6815 13.1187 8.02513 13.7751C7.36875 14.4315 7 15.3217 7 16.25" stroke="currentColor" stroke-width="1.5" stroke-linecap="round" stroke-linejoin="round"/>
</svg>
