<svg width="22" height="19" viewBox="0 0 22 19" fill="none" xmlns="http://www.w3.org/2000/svg">
<path d="M7.26 4.00005C7.26 3.41657 7.02821 2.85699 6.61563 2.44441C6.20305 2.03183 5.64348 1.80005 5.06 1.80005C4.47652 1.80005 3.91695 2.03183 3.50437 2.44441C3.09179 2.85699 2.86 3.41657 2.86 4.00005C2.86 4.58353 3.09179 5.1431 3.50437 5.55568C3.91695 5.96826 4.47652 6.20005 5.06 6.20005C5.64348 6.20005 6.20305 5.96826 6.61563 5.55568C7.02821 5.1431 7.26 4.58353 7.26 4.00005ZM1.1 9.50005C1.1 10.1085 1.59156 10.6 2.2 10.6H5.1425C5.48969 9.24567 6.46938 8.14224 7.74813 7.62317C7.41469 7.41692 7.01938 7.30005 6.6 7.30005H3.3C2.08656 7.30005 1.1 8.28661 1.1 9.50005ZM16.9675 10.6H19.8C20.4084 10.6 20.9 10.1085 20.9 9.50005C20.9 8.28661 19.9134 7.30005 18.7 7.30005H15.4C14.9978 7.30005 14.6197 7.40661 14.2966 7.59567C15.6062 8.10442 16.6134 9.22161 16.9675 10.6ZM13.4475 8.48255C13.2103 8.42755 12.9594 8.40005 12.705 8.40005H9.405C9.11281 8.40005 8.83094 8.43786 8.56281 8.50661C7.50406 8.78505 6.65156 9.57567 6.29063 10.6C6.17031 10.9438 6.10156 11.315 6.10156 11.7C6.10156 12.3085 6.59313 12.8 7.20156 12.8H14.9016C15.51 12.8 16.0016 12.3085 16.0016 11.7C16.0016 11.315 15.9363 10.9438 15.8125 10.6C15.4413 9.54474 14.5475 8.73692 13.4441 8.48255H13.4475ZM19.36 4.00005C19.36 3.41657 19.1282 2.85699 18.7156 2.44441C18.3031 2.03183 17.7435 1.80005 17.16 1.80005C16.5765 1.80005 16.0169 2.03183 15.6044 2.44441C15.1918 2.85699 14.96 3.41657 14.96 4.00005C14.96 4.58353 15.1918 5.1431 15.6044 5.55568C16.0169 5.96826 16.5765 6.20005 17.16 6.20005C17.7435 6.20005 18.3031 5.96826 18.7156 5.55568C19.1282 5.1431 19.36 4.58353 19.36 4.00005ZM11.055 7.30005C11.7843 7.30005 12.4838 7.01032 12.9995 6.49459C13.5153 5.97887 13.805 5.27939 13.805 4.55005C13.805 3.8207 13.5153 3.12123 12.9995 2.60551C12.4838 2.08978 11.7843 1.80005 11.055 1.80005C10.3257 1.80005 9.62618 2.08978 9.11046 2.60551C8.59473 3.12123 8.305 3.8207 8.305 4.55005C8.305 5.27939 8.59473 5.97887 9.11046 6.49459C9.62618 7.01032 10.3257 7.30005 11.055 7.30005ZM1.1 15C0.491562 15 0 15.4916 0 16.1C0 16.7085 0.491562 17.2 1.1 17.2H20.9C21.5084 17.2 22 16.7085 22 16.1C22 15.4916 21.5084 15 20.9 15H1.1Z" fill="currentColor"/>
</svg>
